<svg id="svg" version="1.1" xmlns="http://www.w3.org/2000/svg" xmlns:xlink="http://www.w3.org/1999/xlink" width="400" height="400" viewBox="0, 0, 400,400"><g id="svgg"><path id="path0" d="M33.200 0.620 C 33.200 1.557,30.725 2.400,27.976 2.400 C 26.143 2.400,25.274 2.599,24.523 3.189 C 23.970 3.624,22.862 4.098,22.059 4.243 C 21.257 4.388,20.278 4.842,19.884 5.253 C 19.491 5.664,18.814 6.000,18.381 6.000 C 17.947 6.000,17.284 6.360,16.907 6.800 C 16.530 7.240,16.058 7.600,15.858 7.600 C 15.657 7.600,14.351 8.770,12.956 10.200 C 11.561 11.630,10.235 12.800,10.010 12.800 C 9.784 12.800,9.600 12.980,9.600 13.200 C 9.600 13.420,9.195 14.002,8.700 14.493 C 7.685 15.499,7.114 16.378,6.169 18.386 C 5.811 19.149,5.286 19.959,5.003 20.186 C 4.720 20.414,4.374 21.257,4.234 22.059 C 4.094 22.862,3.624 23.970,3.189 24.523 C 2.599 25.274,2.400 26.143,2.400 27.976 C 2.400 30.725,1.557 33.200,0.620 33.200 C 0.061 33.200,0.000 49.542,0.000 199.800 C 0.000 338.749,0.089 366.400,0.536 366.400 C 1.410 366.400,2.093 368.402,2.309 371.600 C 2.445 373.620,2.743 374.898,3.222 375.512 C 3.614 376.013,4.062 377.183,4.219 378.110 C 4.377 379.048,4.836 380.030,5.252 380.321 C 5.663 380.610,6.000 381.197,6.000 381.627 C 6.000 382.056,6.360 382.716,6.800 383.093 C 7.240 383.470,7.600 383.956,7.600 384.175 C 7.600 384.393,7.968 384.938,8.418 385.386 C 8.867 385.834,10.176 387.200,11.325 388.422 C 12.474 389.643,13.726 390.763,14.107 390.909 C 14.488 391.055,14.800 391.451,14.800 391.787 C 14.800 392.142,15.152 392.400,15.637 392.400 C 16.125 392.400,16.558 392.719,16.674 393.162 C 16.798 393.634,17.359 394.016,18.149 394.164 C 18.851 394.296,19.733 394.763,20.109 395.202 C 20.551 395.718,21.288 396.000,22.196 396.000 C 23.026 396.000,23.901 396.301,24.337 396.737 C 24.849 397.249,25.919 397.544,27.851 397.706 C 30.903 397.962,32.800 398.636,32.800 399.464 C 32.800 399.911,60.582 400.000,200.200 400.000 C 346.946 400.000,367.600 399.928,367.600 399.414 C 367.600 398.495,368.998 397.970,372.120 397.715 C 374.023 397.560,375.324 397.229,375.954 396.740 C 376.479 396.333,377.425 396.000,378.058 396.000 C 378.712 396.000,379.503 395.656,379.891 395.202 C 380.267 394.763,381.149 394.296,381.851 394.164 C 382.641 394.016,383.202 393.634,383.326 393.162 C 383.439 392.729,383.875 392.400,384.336 392.400 C 384.795 392.400,385.256 392.053,385.400 391.600 C 385.540 391.160,385.822 390.800,386.027 390.800 C 386.525 390.800,390.800 386.541,390.800 386.044 C 390.800 385.830,391.160 385.540,391.600 385.400 C 392.040 385.260,392.400 384.869,392.400 384.531 C 392.400 384.192,392.850 383.381,393.400 382.727 C 393.950 382.073,394.400 381.322,394.400 381.058 C 394.400 380.794,394.760 380.270,395.200 379.893 C 395.715 379.452,396.000 378.713,396.000 377.819 C 396.000 376.988,396.299 376.144,396.745 375.716 C 397.295 375.188,397.549 374.198,397.711 371.947 C 397.924 368.990,398.811 366.400,399.610 366.400 C 399.863 366.400,400.000 307.883,400.000 200.400 C 400.000 61.952,399.911 34.400,399.464 34.400 C 398.563 34.400,397.948 32.396,397.707 28.675 C 397.554 26.321,397.303 25.061,396.960 24.929 C 396.675 24.820,396.238 23.745,395.988 22.540 C 395.737 21.335,395.294 20.258,395.002 20.146 C 394.711 20.034,394.359 19.490,394.220 18.937 C 394.081 18.384,393.615 17.553,393.184 17.090 C 392.753 16.628,392.400 15.923,392.400 15.525 C 392.400 15.126,392.126 14.800,391.790 14.800 C 391.455 14.800,391.009 14.350,390.800 13.800 C 390.591 13.250,390.145 12.800,389.810 12.800 C 389.474 12.800,389.200 12.526,389.200 12.191 C 389.200 11.857,388.750 11.378,388.200 11.127 C 387.650 10.877,387.200 10.443,387.200 10.163 C 387.200 9.883,386.849 9.543,386.420 9.406 C 385.992 9.270,385.530 8.808,385.394 8.380 C 385.257 7.951,384.826 7.600,384.435 7.600 C 384.044 7.600,383.398 7.240,383.000 6.800 C 382.602 6.360,381.951 6.000,381.554 6.000 C 381.156 6.000,380.509 5.664,380.116 5.253 C 379.722 4.842,378.743 4.388,377.941 4.243 C 377.138 4.098,376.030 3.624,375.477 3.189 C 374.764 2.628,373.856 2.399,372.337 2.398 C 369.408 2.395,367.156 1.719,366.908 0.769 C 366.625 -0.312,33.200 -0.460,33.200 0.620 M93.843 43.203 C 94.065 43.425,96.194 43.758,98.574 43.944 C 101.936 44.206,102.984 44.429,103.271 44.941 C 103.504 45.358,104.156 45.600,105.046 45.600 C 106.486 45.600,107.768 46.111,108.720 47.063 C 109.016 47.358,109.774 47.600,110.406 47.600 C 111.071 47.600,111.775 47.913,112.077 48.343 C 112.365 48.751,113.005 49.213,113.500 49.370 C 113.995 49.526,114.400 49.823,114.400 50.030 C 114.400 50.237,115.106 50.689,115.969 51.034 C 116.832 51.380,117.637 51.918,117.757 52.231 C 117.877 52.544,118.222 52.800,118.523 52.800 C 118.825 52.800,119.277 53.250,119.527 53.800 C 119.778 54.350,120.245 54.800,120.564 54.800 C 120.884 54.800,121.257 55.151,121.394 55.580 C 121.530 56.008,121.992 56.470,122.420 56.606 C 122.849 56.743,123.200 57.091,123.200 57.381 C 123.200 57.671,123.650 58.203,124.200 58.563 C 124.750 58.924,125.200 59.465,125.200 59.766 C 125.200 60.068,125.452 60.411,125.760 60.529 C 126.068 60.647,126.532 61.387,126.791 62.172 C 127.050 62.957,127.504 63.600,127.799 63.600 C 128.095 63.600,128.451 64.121,128.591 64.759 C 128.731 65.396,129.195 66.234,129.623 66.621 C 130.050 67.007,130.400 67.829,130.400 68.446 C 130.400 69.064,130.759 69.903,131.198 70.312 C 131.682 70.763,132.096 71.831,132.252 73.028 C 132.392 74.112,132.798 75.334,133.154 75.742 C 134.125 76.858,134.125 96.742,133.154 97.858 C 132.798 98.266,132.394 99.500,132.255 100.600 C 132.093 101.885,131.716 102.837,131.201 103.264 C 130.722 103.662,130.400 104.415,130.400 105.141 C 130.400 105.900,130.101 106.564,129.603 106.913 C 129.164 107.220,128.691 108.047,128.550 108.750 C 128.409 109.453,127.958 110.208,127.547 110.428 C 127.136 110.648,126.800 111.085,126.800 111.400 C 126.800 111.715,126.440 112.165,126.000 112.400 C 125.560 112.635,125.200 113.069,125.200 113.364 C 125.200 113.659,123.805 115.291,122.100 116.990 C 117.843 121.233,117.410 121.600,116.658 121.600 C 116.296 121.600,116.000 121.874,116.000 122.210 C 116.000 122.545,115.505 123.008,114.901 123.238 C 114.296 123.468,113.531 123.892,113.201 124.181 C 112.870 124.469,112.177 124.834,111.661 124.992 C 111.144 125.150,110.379 125.621,109.961 126.039 C 109.542 126.458,108.694 126.800,108.075 126.800 C 107.457 126.800,106.562 127.162,106.087 127.605 C 105.502 128.149,104.410 128.493,102.711 128.666 C 101.215 128.818,99.815 129.220,99.246 129.661 C 97.409 131.084,81.600 130.614,81.600 129.136 C 81.600 128.951,80.924 128.800,80.097 128.800 C 78.157 128.800,76.164 128.221,75.371 127.428 C 75.025 127.082,74.223 126.800,73.587 126.800 C 72.951 126.800,72.109 126.455,71.716 126.032 C 71.322 125.610,70.503 125.140,69.895 124.988 C 69.287 124.835,68.657 124.495,68.495 124.232 C 68.333 123.969,67.615 123.517,66.900 123.228 C 66.185 122.939,65.600 122.540,65.600 122.342 C 65.600 122.143,65.150 121.809,64.600 121.600 C 64.050 121.391,63.600 120.940,63.600 120.597 C 63.600 120.255,63.285 119.858,62.900 119.716 C 62.515 119.573,61.525 118.769,60.700 117.928 C 59.876 117.088,59.024 116.400,58.808 116.400 C 58.592 116.400,58.302 115.950,58.164 115.400 C 58.026 114.850,57.658 114.400,57.347 114.400 C 57.035 114.400,56.618 113.975,56.421 113.455 C 56.223 112.935,55.777 112.400,55.431 112.267 C 55.084 112.134,54.800 111.777,54.800 111.475 C 54.800 111.172,54.350 110.401,53.800 109.762 C 53.251 109.123,52.801 108.291,52.800 107.914 C 52.800 107.537,52.461 107.047,52.047 106.825 C 51.620 106.596,51.172 105.767,51.013 104.911 C 50.858 104.080,50.447 103.082,50.099 102.694 C 49.750 102.305,49.384 101.009,49.284 99.812 C 49.164 98.364,48.853 97.410,48.352 96.957 C 47.157 95.876,47.200 77.286,48.400 76.200 C 48.914 75.734,49.202 74.963,49.205 74.038 C 49.213 72.060,49.598 70.800,50.194 70.800 C 50.481 70.800,50.792 70.073,50.922 69.100 C 51.069 68.005,51.443 67.205,51.975 66.851 C 52.429 66.549,52.800 65.876,52.800 65.355 C 52.800 64.833,53.160 64.182,53.600 63.907 C 54.040 63.632,54.400 63.195,54.400 62.934 C 54.400 62.674,54.850 61.927,55.400 61.273 C 55.950 60.619,56.400 59.890,56.400 59.651 C 56.400 59.413,56.850 58.924,57.400 58.563 C 57.950 58.203,58.400 57.671,58.400 57.381 C 58.400 57.091,58.760 56.740,59.200 56.600 C 59.640 56.460,60.000 56.083,60.000 55.760 C 60.000 55.438,60.315 55.057,60.700 54.912 C 61.085 54.767,61.864 54.188,62.432 53.625 C 63.940 52.126,65.279 51.197,66.300 50.940 C 66.795 50.815,67.200 50.466,67.200 50.164 C 67.200 49.862,67.637 49.506,68.171 49.372 C 68.704 49.238,69.452 48.784,69.833 48.364 C 70.213 47.944,70.911 47.600,71.384 47.600 C 71.857 47.600,72.855 47.150,73.600 46.600 C 74.479 45.951,75.483 45.600,76.458 45.600 C 77.442 45.600,78.088 45.371,78.332 44.935 C 78.624 44.414,79.629 44.205,83.003 43.964 C 85.368 43.795,87.496 43.464,87.731 43.229 C 88.275 42.685,93.305 42.665,93.843 43.203 M292.200 143.447 C 298.483 143.669,300.042 143.844,301.194 144.458 C 302.030 144.903,303.409 145.200,304.640 145.200 C 306.025 145.200,307.002 145.440,307.646 145.939 C 308.171 146.346,309.500 146.795,310.600 146.938 C 311.878 147.103,312.840 147.486,313.264 147.999 C 313.691 148.513,314.415 148.800,315.289 148.800 C 316.068 148.800,316.994 149.122,317.458 149.554 C 317.903 149.968,318.818 150.428,319.492 150.576 C 320.166 150.724,321.034 151.195,321.421 151.623 C 321.807 152.050,322.450 152.400,322.848 152.400 C 323.246 152.400,323.757 152.745,323.983 153.167 C 324.209 153.590,324.936 154.054,325.600 154.200 C 326.264 154.346,326.991 154.810,327.217 155.233 C 327.443 155.655,327.882 156.000,328.191 156.000 C 328.501 156.000,328.990 156.327,329.277 156.726 C 329.565 157.126,330.115 157.570,330.500 157.714 C 330.885 157.857,331.200 158.247,331.200 158.580 C 331.200 158.913,331.650 159.298,332.200 159.436 C 332.750 159.574,333.200 159.908,333.200 160.179 C 333.200 160.450,333.650 160.877,334.200 161.127 C 334.750 161.378,335.200 161.857,335.200 162.191 C 335.200 162.526,335.467 162.800,335.792 162.800 C 336.118 162.800,336.493 163.233,336.626 163.762 C 336.759 164.291,337.213 164.815,337.634 164.925 C 338.055 165.035,338.400 165.400,338.400 165.736 C 338.400 166.071,338.760 166.460,339.200 166.600 C 339.640 166.740,340.000 167.102,340.000 167.404 C 340.000 167.707,340.324 168.190,340.720 168.477 C 341.116 168.765,341.673 169.572,341.957 170.271 C 342.241 170.970,342.727 171.640,343.037 171.759 C 343.346 171.878,343.600 172.308,343.600 172.715 C 343.600 173.123,344.050 173.847,344.600 174.325 C 345.162 174.814,345.600 175.627,345.600 176.183 C 345.600 176.762,345.931 177.349,346.400 177.600 C 346.907 177.871,347.200 178.438,347.200 179.144 C 347.200 179.818,347.597 180.633,348.200 181.200 C 348.831 181.792,349.200 182.578,349.200 183.326 C 349.200 183.978,349.492 184.725,349.849 184.986 C 350.208 185.249,350.650 186.427,350.840 187.629 C 351.029 188.822,351.452 189.995,351.781 190.235 C 352.121 190.484,352.495 191.671,352.651 192.998 C 352.820 194.431,353.208 195.608,353.662 196.062 C 354.232 196.632,354.400 197.409,354.400 199.469 C 354.400 201.302,354.591 202.349,355.012 202.813 C 355.741 203.619,356.394 207.276,356.398 210.569 C 356.399 212.216,356.603 213.161,357.067 213.674 C 357.634 214.301,357.785 215.985,358.073 224.906 C 358.260 230.678,358.599 236.480,358.828 237.800 C 359.094 239.335,359.322 259.623,359.462 294.086 L 359.680 347.972 358.840 349.040 C 358.378 349.627,358.000 350.411,358.000 350.781 C 358.000 351.589,355.584 354.400,354.890 354.400 C 354.620 354.400,354.400 354.664,354.400 354.986 C 354.400 355.782,353.135 356.400,351.506 356.400 C 350.766 356.400,349.935 356.625,349.660 356.900 C 348.828 357.733,299.900 357.843,299.212 357.014 C 298.912 356.653,298.056 356.400,297.132 356.400 C 295.971 356.400,295.320 356.139,294.635 355.400 C 294.125 354.850,293.504 354.400,293.254 354.400 C 293.004 354.400,292.800 354.246,292.800 354.058 C 292.800 353.871,292.350 353.231,291.800 352.638 C 291.250 352.044,290.800 351.363,290.800 351.123 C 290.800 350.884,290.485 350.458,290.100 350.176 C 289.441 349.694,289.388 346.309,289.200 291.694 C 289.031 242.679,288.913 233.618,288.437 233.045 C 288.112 232.653,287.751 230.876,287.582 228.828 C 287.348 226.010,287.116 225.116,286.444 224.444 C 285.899 223.899,285.600 223.092,285.600 222.163 C 285.600 221.338,285.264 220.299,284.811 219.723 C 284.376 219.170,283.906 218.107,283.766 217.359 C 283.626 216.612,283.342 216.000,283.135 216.000 C 282.928 216.000,282.570 215.460,282.340 214.800 C 282.110 214.140,281.681 213.600,281.388 213.600 C 281.094 213.600,280.751 213.285,280.625 212.900 C 280.500 212.515,279.543 211.337,278.498 210.282 C 275.626 207.381,274.956 206.800,274.481 206.800 C 274.241 206.800,273.810 206.469,273.523 206.065 C 273.235 205.660,272.474 205.199,271.832 205.040 C 271.189 204.881,270.220 204.402,269.678 203.975 C 269.018 203.456,268.066 203.200,266.800 203.200 C 265.514 203.200,264.582 202.944,263.891 202.400 C 262.510 201.314,250.335 201.173,249.167 202.230 C 248.785 202.576,247.468 202.995,246.242 203.162 C 245.016 203.328,243.681 203.765,243.275 204.132 C 242.869 204.499,242.250 204.800,241.899 204.800 C 241.548 204.800,240.727 205.250,240.073 205.800 C 239.419 206.350,238.518 206.800,238.069 206.800 C 237.605 206.800,237.145 207.145,237.000 207.600 C 236.860 208.040,236.578 208.400,236.373 208.400 C 235.875 208.400,231.600 212.659,231.600 213.156 C 231.600 213.370,231.240 213.660,230.800 213.800 C 230.360 213.940,230.000 214.393,230.000 214.806 C 230.000 215.220,229.550 216.044,229.000 216.638 C 228.450 217.231,228.000 217.933,228.000 218.196 C 228.000 218.460,227.640 219.002,227.200 219.400 C 226.760 219.798,226.400 220.630,226.400 221.248 C 226.400 221.939,226.110 222.527,225.648 222.775 C 225.115 223.059,224.814 223.823,224.619 225.385 C 224.459 226.670,224.098 227.729,223.755 227.921 C 223.374 228.134,223.057 229.280,222.854 231.179 C 222.621 233.366,222.346 234.250,221.771 234.671 C 221.017 235.222,220.997 236.489,220.871 291.717 C 220.761 339.735,220.657 348.294,220.176 348.826 C 219.864 349.171,219.494 350.032,219.352 350.740 C 219.210 351.449,218.770 352.202,218.374 352.414 C 217.978 352.626,217.540 353.159,217.400 353.600 C 217.260 354.040,216.954 354.400,216.719 354.400 C 216.484 354.400,215.875 354.850,215.365 355.400 C 214.724 356.092,214.016 356.400,213.068 356.400 C 212.315 356.400,211.474 356.670,211.200 357.000 C 210.491 357.855,163.431 357.911,162.189 357.058 C 161.755 356.761,160.661 356.421,159.758 356.304 C 158.855 356.187,157.707 355.756,157.208 355.346 C 155.365 353.833,154.455 352.803,154.174 351.913 C 154.015 351.411,153.551 350.765,153.143 350.477 C 152.423 349.971,152.400 346.972,152.400 251.810 C 152.400 154.308,152.419 152.400,153.393 152.400 C 153.672 152.400,154.011 151.843,154.147 151.163 C 154.564 149.081,157.507 146.800,159.777 146.800 C 160.286 146.800,160.926 146.530,161.200 146.200 C 161.633 145.678,164.954 145.600,186.606 145.600 C 208.378 145.600,211.543 145.676,211.745 146.200 C 211.880 146.554,212.481 146.800,213.207 146.800 C 213.976 146.800,214.769 147.149,215.319 147.730 C 215.804 148.241,216.515 148.776,216.900 148.917 C 217.285 149.059,217.600 149.438,217.600 149.760 C 217.600 150.083,217.960 150.460,218.400 150.600 C 218.840 150.740,219.200 151.159,219.200 151.533 C 219.200 151.906,219.560 152.884,220.000 153.704 C 220.707 155.024,220.800 155.961,220.800 161.799 C 220.800 167.893,221.119 169.745,221.800 167.600 C 221.940 167.160,222.316 166.800,222.637 166.800 C 222.957 166.800,223.391 166.350,223.600 165.800 C 223.809 165.250,224.255 164.800,224.590 164.800 C 224.926 164.800,225.200 164.562,225.200 164.272 C 225.200 163.982,225.605 163.358,226.100 162.887 C 226.595 162.415,227.540 161.483,228.200 160.815 C 228.860 160.147,229.604 159.601,229.853 159.600 C 230.103 159.600,230.404 159.227,230.524 158.770 C 230.643 158.314,231.114 157.843,231.570 157.724 C 232.027 157.604,232.400 157.258,232.400 156.953 C 232.400 156.649,232.555 156.400,232.745 156.400 C 232.935 156.400,233.769 155.860,234.600 155.200 C 235.431 154.540,236.445 154.000,236.855 154.000 C 237.265 154.000,237.600 153.742,237.600 153.427 C 237.600 153.112,238.005 152.731,238.500 152.581 C 238.995 152.431,239.760 151.982,240.200 151.584 C 240.640 151.185,241.521 150.730,242.158 150.572 C 242.795 150.414,243.650 149.950,244.058 149.542 C 244.495 149.105,245.369 148.800,246.184 148.800 C 247.060 148.800,247.847 148.502,248.325 147.988 C 248.826 147.451,249.811 147.097,251.241 146.940 C 252.460 146.807,253.614 146.436,253.891 146.087 C 254.208 145.689,255.414 145.376,257.291 145.202 C 258.891 145.055,260.740 144.635,261.400 144.269 C 262.328 143.755,263.778 143.593,267.800 143.552 C 270.660 143.522,274.980 143.365,277.400 143.202 C 279.820 143.039,282.430 142.967,283.200 143.042 C 283.970 143.117,288.020 143.300,292.200 143.447 M115.455 146.200 C 115.598 146.572,116.208 146.800,117.062 146.800 C 117.983 146.800,118.730 147.108,119.319 147.730 C 119.804 148.241,120.515 148.776,120.900 148.917 C 121.285 149.059,121.600 149.438,121.600 149.760 C 121.600 150.083,121.960 150.460,122.400 150.600 C 122.840 150.740,123.200 151.104,123.200 151.409 C 123.200 151.715,123.650 152.628,124.200 153.438 L 125.200 154.912 125.200 251.578 L 125.200 348.245 124.200 349.600 C 123.650 350.345,123.200 351.280,123.200 351.678 C 123.200 352.075,122.926 352.400,122.591 352.400 C 122.257 352.400,121.778 352.850,121.527 353.400 C 121.277 353.950,120.740 354.400,120.336 354.400 C 119.931 354.400,119.600 354.674,119.600 355.010 C 119.600 355.713,118.045 356.400,116.454 356.400 C 115.852 356.400,115.135 356.625,114.860 356.900 C 114.061 357.700,69.248 357.839,67.487 357.046 C 66.779 356.728,65.345 356.351,64.301 356.209 C 63.010 356.034,62.269 355.703,61.987 355.176 C 61.759 354.749,61.320 354.400,61.013 354.400 C 60.705 354.400,60.340 354.040,60.200 353.600 C 60.060 353.159,59.606 352.617,59.190 352.395 C 58.772 352.171,58.313 351.343,58.162 350.540 C 58.013 349.743,57.555 348.755,57.145 348.345 C 55.977 347.177,55.977 155.623,57.145 154.455 C 57.555 154.045,58.013 153.055,58.163 152.255 C 58.331 151.360,58.664 150.800,59.028 150.800 C 59.354 150.800,59.791 150.350,60.000 149.800 C 60.209 149.250,60.556 148.800,60.772 148.800 C 60.987 148.800,61.614 148.350,62.164 147.800 C 62.843 147.121,63.605 146.800,64.539 146.800 C 65.393 146.800,66.002 146.572,66.145 146.200 C 66.346 145.676,69.458 145.600,90.800 145.600 C 112.142 145.600,115.254 145.676,115.455 146.200 " stroke="none" fill="#0473b4" fill-rule="evenodd"></path><path id="path1" d="M30.198 0.610 C 29.979 0.945,28.990 1.391,28.000 1.600 L 26.200 1.980 28.116 1.795 C 30.161 1.598,31.600 1.016,31.600 0.386 C 31.600 -0.219,30.639 -0.066,30.198 0.610 M368.800 0.585 C 368.800 1.258,371.606 2.136,372.931 1.878 C 373.522 1.763,373.385 1.692,372.500 1.654 C 371.785 1.625,370.840 1.240,370.400 0.800 C 369.456 -0.144,368.800 -0.232,368.800 0.585 M19.200 4.600 C 18.455 5.150,18.049 5.600,18.299 5.600 C 18.548 5.600,18.875 5.402,19.024 5.160 C 19.174 4.919,19.859 4.476,20.548 4.176 C 21.237 3.876,21.520 3.624,21.178 3.616 C 20.835 3.607,19.945 4.050,19.200 4.600 M383.600 6.600 C 384.345 7.150,385.055 7.599,385.178 7.598 C 385.555 7.595,383.024 5.630,382.622 5.614 C 382.415 5.606,382.855 6.050,383.600 6.600 M10.963 10.900 C 9.858 12.055,8.699 13.360,8.387 13.800 C 7.885 14.509,11.813 10.573,12.879 9.300 C 13.938 8.035,12.775 9.006,10.963 10.900 M388.080 10.200 C 391.362 13.825,392.031 14.503,392.176 14.355 C 392.260 14.270,391.046 12.940,389.479 11.400 C 387.913 9.860,387.283 9.320,388.080 10.200 M392.962 15.600 C 393.325 16.150,393.877 17.154,394.188 17.832 C 394.499 18.509,395.034 19.296,395.375 19.580 C 396.141 20.215,394.348 17.006,393.152 15.600 L 392.302 14.600 392.962 15.600 M6.264 16.329 C 5.305 17.389,5.446 17.754,6.433 16.767 C 6.892 16.308,7.191 15.857,7.098 15.764 C 7.005 15.671,6.630 15.925,6.264 16.329 M4.687 19.032 C 4.150 19.749,4.118 19.930,4.556 19.761 C 4.876 19.639,5.246 19.256,5.378 18.912 C 5.752 17.937,5.469 17.986,4.687 19.032 M2.857 22.857 C 2.575 23.309,2.432 23.766,2.540 23.873 C 2.647 23.981,2.944 23.678,3.200 23.200 C 3.805 22.070,3.524 21.790,2.857 22.857 M396.432 22.314 C 396.414 22.597,396.683 23.261,397.030 23.789 C 397.376 24.317,397.805 25.616,397.983 26.675 C 398.270 28.385,398.311 28.443,398.348 27.200 C 398.386 25.923,396.504 21.125,396.432 22.314 M1.200 29.333 C 1.200 29.700,0.930 30.000,0.600 30.000 C 0.267 30.000,0.000 30.356,0.000 30.800 C 0.000 32.067,1.108 31.729,1.406 30.371 C 1.555 29.696,1.569 29.036,1.438 28.905 C 1.307 28.774,1.200 28.967,1.200 29.333 M398.432 29.481 C 398.394 30.525,399.186 32.400,399.664 32.400 C 399.849 32.400,400.000 32.040,400.000 31.600 C 400.000 31.160,399.835 30.800,399.633 30.800 C 399.432 30.800,399.086 30.305,398.865 29.700 C 398.509 28.725,398.460 28.700,398.432 29.481 M89.500 43.889 C 90.215 43.978,91.385 43.978,92.100 43.889 C 92.815 43.801,92.230 43.728,90.800 43.728 C 89.370 43.728,88.785 43.801,89.500 43.889 M85.500 44.282 C 85.995 44.378,86.805 44.378,87.300 44.282 C 87.795 44.187,87.390 44.109,86.400 44.109 C 85.410 44.109,85.005 44.187,85.500 44.282 M94.505 44.287 C 95.114 44.379,96.014 44.377,96.505 44.282 C 96.997 44.187,96.500 44.111,95.400 44.114 C 94.300 44.117,93.897 44.195,94.505 44.287 M79.776 44.987 C 79.349 45.310,79.189 45.580,79.420 45.587 C 79.651 45.594,80.011 45.435,80.220 45.234 C 80.429 45.032,81.050 44.787,81.600 44.688 L 82.600 44.509 81.576 44.454 C 81.014 44.425,80.204 44.664,79.776 44.987 M100.200 44.689 C 100.640 44.792,101.229 45.065,101.510 45.295 C 101.790 45.526,102.135 45.598,102.276 45.457 C 102.690 45.043,102.194 44.775,100.750 44.633 C 100.007 44.560,99.760 44.585,100.200 44.689 M74.925 46.700 C 74.506 47.085,74.384 47.253,74.656 47.072 C 74.927 46.892,75.655 46.592,76.274 46.407 C 77.187 46.133,77.238 46.062,76.544 46.034 C 76.074 46.015,75.345 46.315,74.925 46.700 M106.800 47.000 C 107.074 47.330,107.478 47.600,107.698 47.600 C 107.921 47.600,107.878 47.335,107.600 47.000 C 107.326 46.670,106.922 46.400,106.702 46.400 C 106.479 46.400,106.522 46.665,106.800 47.000 M71.122 48.375 C 70.580 48.802,69.654 49.272,69.065 49.420 C 68.475 49.568,67.894 49.849,67.773 50.044 C 67.435 50.591,68.061 50.438,69.600 49.597 C 70.370 49.176,71.540 48.562,72.200 48.232 C 72.879 47.892,73.120 47.625,72.754 47.616 C 72.399 47.607,71.664 47.949,71.122 48.375 M110.232 48.598 C 111.314 49.147,112.290 49.592,112.400 49.586 C 112.867 49.561,109.348 47.604,108.832 47.602 C 108.520 47.601,109.150 48.049,110.232 48.598 M113.271 50.117 C 113.562 50.401,114.986 51.477,116.435 52.506 C 118.788 54.177,122.869 58.020,124.607 60.200 L 125.244 61.000 124.853 60.200 C 124.308 59.087,118.811 53.612,117.022 52.400 C 116.209 51.850,115.036 50.995,114.415 50.500 C 113.200 49.533,112.401 49.265,113.271 50.117 M63.365 53.519 C 60.920 55.408,56.400 60.179,56.400 60.871 C 56.400 61.075,57.297 60.164,58.393 58.846 C 59.490 57.529,61.225 55.764,62.250 54.925 C 66.862 51.150,67.542 50.292,63.365 53.519 M54.100 64.016 C 52.837 65.575,52.971 65.933,54.250 64.414 C 54.827 63.728,55.232 63.108,55.150 63.036 C 55.067 62.964,54.595 63.405,54.100 64.016 M126.400 63.012 C 126.400 63.162,126.850 63.819,127.400 64.473 C 127.950 65.127,128.400 65.539,128.400 65.388 C 128.400 65.238,127.950 64.581,127.400 63.927 C 126.850 63.273,126.400 62.861,126.400 63.012 M129.055 67.400 C 129.980 68.979,130.000 69.003,130.000 68.511 C 130.000 68.279,129.629 67.664,129.176 67.144 L 128.353 66.200 129.055 67.400 M50.223 71.689 C 49.880 72.178,49.621 72.943,49.646 73.389 C 49.691 74.172,49.700 74.173,49.892 73.417 C 50.001 72.986,50.361 72.221,50.691 71.717 C 51.463 70.538,51.046 70.514,50.223 71.689 M132.002 75.526 C 132.001 75.816,132.204 76.433,132.452 76.898 C 132.701 77.363,133.054 78.656,133.235 79.772 L 133.566 81.800 133.417 79.600 C 133.290 77.719,132.009 74.031,132.002 75.526 M48.390 77.826 C 48.176 78.390,48.021 79.335,48.046 79.926 C 48.086 80.860,48.131 80.818,48.392 79.600 C 48.557 78.830,48.826 77.885,48.989 77.500 C 49.152 77.115,49.172 76.800,49.033 76.800 C 48.894 76.800,48.605 77.262,48.390 77.826 M47.755 86.200 C 47.756 89.060,47.820 90.178,47.897 88.683 C 47.974 87.189,47.974 84.849,47.896 83.483 C 47.818 82.118,47.755 83.340,47.755 86.200 M48.053 92.940 C 48.024 93.786,48.254 95.046,48.564 95.740 C 48.874 96.433,49.220 97.270,49.333 97.600 C 49.487 98.054,49.545 98.023,49.568 97.474 C 49.586 97.074,49.383 96.354,49.118 95.874 C 48.853 95.393,48.517 94.190,48.372 93.200 L 48.107 91.400 48.053 92.940 M133.267 93.656 C 133.230 94.457,132.844 95.897,132.409 96.856 C 131.974 97.815,131.632 99.050,131.650 99.600 C 131.677 100.457,131.726 100.416,131.987 99.318 C 132.154 98.613,132.596 97.394,132.969 96.608 C 133.369 95.766,133.583 94.568,133.491 93.690 L 133.334 92.200 133.267 93.656 M49.639 99.800 C 49.620 100.240,49.963 101.140,50.400 101.800 C 50.837 102.460,51.196 102.786,51.197 102.524 C 51.199 102.262,51.023 101.938,50.806 101.804 C 50.590 101.670,50.246 100.984,50.042 100.280 C 49.806 99.463,49.660 99.290,49.639 99.800 M130.454 103.021 C 129.963 104.110,129.291 105.524,128.962 106.164 C 128.432 107.195,128.432 107.272,128.961 106.832 C 129.290 106.559,129.771 105.675,130.030 104.868 C 130.289 104.061,130.767 103.095,131.092 102.723 C 131.416 102.351,131.607 101.820,131.515 101.544 C 131.423 101.268,130.946 101.933,130.454 103.021 M51.609 104.937 C 51.604 105.122,51.960 105.731,52.400 106.291 C 52.840 106.850,53.196 107.149,53.191 106.954 C 53.179 106.487,51.620 104.500,51.609 104.937 M53.200 107.899 C 53.200 108.148,53.383 108.466,53.606 108.604 C 53.829 108.741,54.373 109.562,54.814 110.427 C 55.255 111.292,55.805 112.000,56.037 112.000 C 56.268 112.000,56.174 111.717,55.829 111.371 C 55.483 111.026,55.200 110.611,55.200 110.449 C 55.200 110.288,54.750 109.545,54.200 108.800 C 53.650 108.055,53.200 107.649,53.200 107.899 M127.284 109.099 C 126.781 109.871,126.445 110.579,126.539 110.672 C 126.632 110.766,127.110 110.193,127.600 109.400 C 128.757 107.528,128.481 107.265,127.284 109.099 M124.350 113.300 C 123.402 114.455,121.630 116.342,120.413 117.494 C 119.196 118.646,118.359 119.591,118.553 119.594 C 118.941 119.601,124.051 114.341,125.530 112.413 C 127.085 110.386,126.191 111.058,124.350 113.300 M58.400 114.929 C 58.400 115.070,59.413 116.134,60.652 117.293 C 61.891 118.452,63.201 119.707,63.565 120.082 C 64.449 120.995,67.701 123.184,68.187 123.193 C 68.399 123.197,67.603 122.575,66.417 121.811 C 65.231 121.047,64.157 120.281,64.030 120.109 C 63.498 119.384,58.400 114.695,58.400 114.929 M116.600 120.871 C 115.609 121.425,114.252 122.800,114.696 122.800 C 114.875 122.800,115.305 122.485,115.650 122.100 C 115.995 121.715,116.620 121.186,117.039 120.924 C 118.006 120.318,117.663 120.277,116.600 120.871 M112.729 123.326 C 112.438 123.615,111.840 124.060,111.400 124.314 C 110.960 124.568,110.790 124.781,111.022 124.788 C 111.255 124.795,112.055 124.350,112.800 123.800 C 113.545 123.250,113.953 122.800,113.706 122.800 C 113.459 122.800,113.019 123.037,112.729 123.326 M71.700 125.076 C 72.085 125.176,72.400 125.406,72.400 125.587 C 72.400 125.767,72.705 126.031,73.078 126.174 C 73.671 126.402,73.664 126.333,73.016 125.617 C 72.609 125.168,71.989 124.821,71.638 124.846 C 71.120 124.884,71.131 124.927,71.700 125.076 M108.800 125.600 C 108.250 126.030,107.952 126.386,108.137 126.391 C 108.322 126.396,108.931 126.040,109.491 125.600 C 110.050 125.160,110.349 124.804,110.154 124.809 C 109.959 124.814,109.350 125.170,108.800 125.600 M76.000 127.020 C 76.000 127.443,78.783 128.400,79.887 128.356 C 80.700 128.324,80.523 128.219,79.229 127.965 C 78.254 127.774,77.273 127.433,77.049 127.209 C 76.609 126.769,76.000 126.660,76.000 127.020 M104.551 127.209 C 104.327 127.433,103.346 127.774,102.371 127.965 C 101.077 128.219,100.900 128.324,101.713 128.356 C 102.817 128.400,105.600 127.443,105.600 127.020 C 105.600 126.660,104.991 126.769,104.551 127.209 M97.441 129.057 C 95.364 129.695,85.648 129.662,83.600 129.009 C 82.758 128.741,82.682 128.779,83.120 129.246 C 83.963 130.145,97.387 130.035,99.000 129.116 C 100.464 128.282,100.021 128.265,97.441 129.057 M270.918 143.898 C 272.633 143.973,275.333 143.972,276.918 143.897 C 278.503 143.821,277.100 143.759,273.800 143.760 C 270.500 143.761,269.203 143.822,270.918 143.898 M287.715 143.896 C 288.988 143.976,290.968 143.975,292.115 143.894 C 293.262 143.814,292.220 143.749,289.800 143.750 C 287.380 143.751,286.442 143.816,287.715 143.896 M261.800 144.818 C 260.700 145.230,260.103 145.574,260.474 145.583 C 260.845 145.593,261.655 145.399,262.274 145.153 C 262.893 144.907,264.390 144.571,265.600 144.406 L 267.800 144.105 265.800 144.087 C 264.700 144.078,262.900 144.406,261.800 144.818 M296.400 144.406 C 297.610 144.571,299.107 144.907,299.726 145.153 C 300.345 145.399,301.245 145.579,301.726 145.554 C 302.530 145.511,302.536 145.493,301.800 145.330 C 301.360 145.232,300.321 144.893,299.492 144.576 C 298.662 144.259,297.132 144.024,296.092 144.052 L 294.200 144.105 296.400 144.406 M255.000 146.259 C 254.340 146.619,253.170 147.047,252.400 147.210 C 251.119 147.483,251.095 147.512,252.120 147.554 C 252.736 147.579,253.765 147.328,254.407 146.996 C 255.049 146.664,256.255 146.233,257.087 146.037 C 258.516 145.700,258.533 145.678,257.400 145.643 C 256.740 145.622,255.660 145.899,255.000 146.259 M304.913 146.037 C 305.745 146.233,306.951 146.664,307.593 146.996 C 308.235 147.328,309.174 147.582,309.680 147.559 C 310.442 147.525,310.394 147.465,309.400 147.211 C 308.740 147.042,307.660 146.611,307.000 146.254 C 306.340 145.897,305.260 145.622,304.600 145.643 C 303.467 145.678,303.484 145.700,304.913 146.037 M66.715 146.728 C 66.338 146.878,77.165 147.000,90.776 147.000 C 104.387 147.000,115.316 146.868,115.062 146.706 C 114.482 146.337,67.647 146.358,66.715 146.728 M161.515 146.728 C 161.138 146.878,172.325 147.000,186.376 147.000 C 200.427 147.000,211.716 146.868,211.462 146.706 C 210.882 146.337,162.447 146.358,161.515 146.728 M213.200 147.490 C 213.750 147.589,214.645 148.059,215.188 148.535 C 216.070 149.308,216.113 149.315,215.588 148.600 C 214.735 147.440,214.320 147.206,213.200 147.261 L 212.200 147.309 213.200 147.490 M60.652 149.870 C 59.413 151.118,58.401 152.423,58.401 152.770 C 58.402 153.136,58.712 152.893,59.139 152.193 C 59.866 151.000,61.443 149.378,63.000 148.220 C 63.440 147.893,63.598 147.620,63.352 147.613 C 63.105 147.606,61.890 148.621,60.652 149.870 M156.139 149.361 C 155.072 150.329,154.290 151.199,154.400 151.294 C 154.510 151.388,155.473 150.596,156.541 149.533 C 158.966 147.118,158.723 147.014,156.139 149.361 M311.824 148.187 C 312.839 148.956,313.434 148.963,312.800 148.200 C 312.526 147.870,312.020 147.600,311.675 147.600 C 311.172 147.600,311.202 147.717,311.824 148.187 M244.600 150.000 C 243.048 151.028,243.578 151.028,245.496 150.000 C 246.316 149.560,246.721 149.201,246.394 149.203 C 246.067 149.204,245.260 149.563,244.600 150.000 M316.104 150.000 C 318.022 151.028,318.552 151.028,317.000 150.000 C 316.340 149.563,315.533 149.204,315.206 149.203 C 314.879 149.201,315.284 149.560,316.104 150.000 M122.071 151.549 C 122.582 152.179,123.057 152.646,123.128 152.586 C 123.367 152.383,122.219 150.816,121.679 150.609 C 121.383 150.495,121.559 150.918,122.071 151.549 M217.879 151.189 C 218.142 151.534,218.536 152.263,218.754 152.808 C 219.017 153.468,219.158 153.573,219.175 153.122 C 219.189 152.750,218.795 152.021,218.300 151.503 C 217.805 150.985,217.616 150.843,217.879 151.189 M240.841 151.834 C 239.073 153.090,239.738 153.059,241.800 151.790 C 242.680 151.248,243.130 150.819,242.800 150.836 C 242.470 150.854,241.588 151.303,240.841 151.834 M318.800 151.084 C 319.130 151.205,319.715 151.579,320.100 151.914 C 320.520 152.280,320.800 152.345,320.800 152.076 C 320.800 151.562,319.506 150.785,318.726 150.832 C 318.363 150.853,318.386 150.932,318.800 151.084 M153.462 153.131 C 153.098 153.534,152.821 154.299,152.846 154.831 C 152.885 155.637,152.926 155.668,153.092 155.017 C 153.201 154.586,153.561 153.821,153.891 153.317 C 154.612 152.217,154.380 152.117,153.462 153.131 M123.200 153.678 C 123.200 153.804,123.463 154.514,123.784 155.254 C 124.189 156.186,124.370 156.354,124.372 155.800 C 124.373 155.360,124.110 154.651,123.787 154.224 C 123.464 153.796,123.200 153.551,123.200 153.678 M57.685 154.813 C 56.840 156.165,57.020 347.143,57.867 348.200 L 58.508 349.000 58.154 348.200 C 57.612 346.974,57.490 156.153,58.031 155.143 C 58.599 154.081,58.312 153.808,57.685 154.813 M324.644 154.689 C 326.691 155.858,328.931 157.436,330.100 158.531 C 330.705 159.098,331.200 159.406,331.200 159.216 C 331.200 158.689,325.536 154.549,324.400 154.246 C 323.551 154.019,323.588 154.086,324.644 154.689 M219.532 162.101 C 219.677 170.523,219.625 170.173,220.684 169.837 C 221.363 169.621,226.000 164.325,226.000 163.764 C 226.000 163.632,225.391 164.253,224.647 165.144 C 223.903 166.034,223.007 167.050,222.656 167.401 C 222.305 167.752,221.857 168.326,221.661 168.676 C 220.768 170.272,220.399 168.615,220.370 162.876 C 220.352 159.463,220.142 156.456,219.870 155.702 C 219.489 154.649,219.425 155.855,219.532 162.101 M235.322 155.387 C 233.863 156.671,234.267 156.679,236.000 155.400 C 236.745 154.850,237.150 154.400,236.900 154.400 C 236.650 154.400,235.940 154.844,235.322 155.387 M232.209 157.791 C 231.335 158.540,230.705 159.219,230.809 159.302 C 230.914 159.384,231.720 158.767,232.600 157.931 C 234.584 156.046,234.348 155.961,232.209 157.791 M124.597 251.800 C 124.597 303.940,124.643 325.211,124.700 299.068 C 124.757 272.925,124.757 230.265,124.700 204.268 C 124.643 178.271,124.597 199.660,124.597 251.800 M335.170 163.332 C 336.189 164.454,336.408 164.593,336.387 164.100 C 336.381 163.935,335.886 163.454,335.287 163.032 L 334.200 162.264 335.170 163.332 M337.625 165.839 C 339.417 168.452,341.326 170.807,341.507 170.627 C 341.621 170.513,340.846 169.380,339.785 168.110 C 337.539 165.420,336.816 164.659,337.625 165.839 M344.272 175.491 C 344.673 176.201,345.066 176.587,345.147 176.349 C 345.228 176.111,344.901 175.530,344.419 175.058 L 343.545 174.200 344.272 175.491 M346.351 179.347 C 346.708 180.088,347.051 180.565,347.113 180.408 C 347.298 179.940,346.450 178.000,346.060 178.000 C 345.863 178.000,345.993 178.606,346.351 179.347 M347.707 182.086 C 348.088 182.683,348.402 183.403,348.404 183.686 C 348.409 184.443,350.373 188.307,350.387 187.589 C 350.394 187.253,350.148 186.618,349.839 186.177 C 349.531 185.737,349.079 184.638,348.836 183.735 C 348.593 182.832,348.084 181.847,347.704 181.547 C 347.053 181.031,347.053 181.062,347.707 182.086 M351.187 191.176 C 351.416 191.603,351.764 192.638,351.961 193.476 C 352.273 194.803,352.325 194.855,352.360 193.880 C 352.397 192.834,351.429 190.400,350.976 190.400 C 350.864 190.400,350.959 190.749,351.187 191.176 M352.608 196.200 C 352.777 196.640,353.162 197.810,353.465 198.800 L 354.014 200.600 353.794 198.849 C 353.673 197.886,353.288 196.716,352.938 196.249 C 352.348 195.462,352.324 195.459,352.608 196.200 M254.117 201.097 C 255.611 201.174,257.951 201.174,259.317 201.096 C 260.682 201.018,259.460 200.955,256.600 200.955 C 253.740 200.956,252.622 201.020,254.117 201.097 M248.296 201.437 C 248.166 201.567,247.371 201.919,246.530 202.219 C 245.427 202.613,245.252 202.770,245.901 202.782 C 246.397 202.792,247.475 202.440,248.296 202.000 C 249.116 201.560,249.506 201.200,249.161 201.200 C 248.816 201.200,248.427 201.307,248.296 201.437 M264.632 201.993 C 264.848 202.208,265.559 202.455,266.213 202.541 C 266.866 202.627,267.130 202.612,266.800 202.510 C 266.470 202.407,266.029 202.160,265.820 201.961 C 265.287 201.455,264.125 201.485,264.632 201.993 M242.525 203.500 C 242.106 203.885,241.960 204.072,242.203 203.916 C 242.445 203.760,243.083 203.456,243.622 203.241 C 244.240 202.994,244.359 202.841,243.944 202.825 C 243.584 202.811,242.945 203.115,242.525 203.500 M269.200 203.091 C 269.530 203.217,270.229 203.653,270.754 204.060 C 271.279 204.467,271.999 204.793,272.354 204.784 C 272.709 204.776,272.437 204.524,271.748 204.224 C 271.059 203.924,270.374 203.481,270.224 203.240 C 270.075 202.998,269.648 202.814,269.276 202.832 C 268.724 202.857,268.710 202.905,269.200 203.091 M354.605 204.400 C 354.746 204.950,355.009 205.940,355.189 206.600 L 355.518 207.800 355.545 206.600 C 355.560 205.940,355.297 204.950,354.961 204.400 L 354.350 203.400 354.605 204.400 M238.600 205.600 C 238.202 206.040,237.966 206.400,238.077 206.400 C 238.187 206.400,238.693 206.040,239.200 205.600 C 239.707 205.160,239.943 204.800,239.723 204.800 C 239.504 204.800,238.998 205.160,238.600 205.600 M234.215 209.000 C 232.698 210.430,231.624 211.599,231.829 211.598 C 232.033 211.598,232.973 210.788,233.918 209.798 C 234.863 208.809,235.764 208.000,235.922 208.000 C 236.079 208.000,236.432 207.640,236.707 207.200 C 237.459 205.997,237.213 206.174,234.215 209.000 M275.233 206.500 C 275.325 206.555,275.940 207.050,276.600 207.600 L 277.800 208.600 276.830 207.500 C 276.297 206.895,275.682 206.400,275.464 206.400 C 275.245 206.400,275.142 206.445,275.233 206.500 M278.431 209.052 C 278.744 209.484,279.326 210.188,279.725 210.618 C 280.124 211.048,280.979 212.100,281.625 212.955 C 282.271 213.810,282.800 214.315,282.800 214.076 C 282.800 213.600,279.112 209.040,278.341 208.564 C 278.058 208.388,278.094 208.588,278.431 209.052 M355.724 210.600 C 355.726 211.920,355.801 212.412,355.890 211.693 C 355.979 210.974,355.977 209.894,355.886 209.293 C 355.795 208.692,355.722 209.280,355.724 210.600 M230.370 213.053 C 229.445 214.056,229.441 214.080,230.292 213.561 C 230.783 213.262,231.272 212.788,231.380 212.509 C 231.666 211.762,231.452 211.877,230.370 213.053 M356.036 213.600 C 356.027 213.930,356.208 214.920,356.439 215.800 C 356.670 216.680,357.012 219.110,357.199 221.200 L 357.539 225.000 357.389 220.800 C 357.268 217.449,356.104 211.248,356.036 213.600 M228.556 215.724 C 227.143 217.906,226.266 219.525,226.998 218.600 C 228.055 217.264,229.648 214.714,229.511 214.577 C 229.440 214.507,229.010 215.023,228.556 215.724 M283.248 215.400 C 283.604 215.840,283.995 216.470,284.116 216.800 C 284.303 217.309,284.342 217.304,284.368 216.762 C 284.386 216.411,283.995 215.781,283.500 215.362 C 282.608 214.606,282.606 214.607,283.248 215.400 M225.780 220.536 C 225.638 221.103,225.269 221.777,224.961 222.033 C 224.652 222.289,224.400 222.669,224.400 222.878 C 224.400 223.086,224.669 222.988,224.998 222.659 C 225.687 221.970,226.515 219.981,226.231 219.697 C 226.125 219.592,225.923 219.969,225.780 220.536 M286.210 221.995 C 286.324 222.762,286.719 223.662,287.087 223.995 C 287.669 224.522,287.699 224.522,287.314 224.000 C 287.071 223.670,286.676 222.770,286.437 222.000 L 286.003 220.600 286.210 221.995 M224.046 224.516 C 224.021 224.910,223.640 225.938,223.200 226.800 C 222.760 227.662,222.414 228.690,222.432 229.084 C 222.455 229.625,222.510 229.654,222.657 229.200 C 222.764 228.870,223.212 227.834,223.654 226.898 C 224.096 225.962,224.376 224.882,224.275 224.498 C 224.106 223.849,224.090 223.850,224.046 224.516 M287.693 226.400 C 287.693 227.170,287.775 227.485,287.876 227.100 C 287.976 226.715,287.976 226.085,287.876 225.700 C 287.775 225.315,287.693 225.630,287.693 226.400 M288.189 229.200 C 288.394 231.082,289.539 234.828,289.573 233.726 C 289.588 233.245,289.395 232.345,289.145 231.726 C 288.895 231.107,288.543 229.970,288.363 229.200 L 288.037 227.800 288.189 229.200 M221.709 232.186 C 221.443 233.051,221.305 233.838,221.402 233.935 C 221.678 234.211,222.446 231.934,222.312 231.238 C 222.246 230.894,221.974 231.321,221.709 232.186 M357.753 237.000 C 357.753 239.640,357.818 240.668,357.897 239.284 C 357.975 237.901,357.974 235.741,357.895 234.484 C 357.816 233.228,357.752 234.360,357.753 237.000 M220.524 238.200 C 220.526 239.520,220.601 240.012,220.690 239.293 C 220.779 238.574,220.777 237.494,220.686 236.893 C 220.595 236.292,220.522 236.880,220.524 238.200 M289.696 292.726 L 289.600 347.252 290.454 349.238 C 290.924 350.330,291.377 351.157,291.460 351.074 C 291.543 350.991,291.293 350.220,290.905 349.361 C 290.246 347.902,290.187 344.231,289.996 293.000 L 289.792 238.200 289.696 292.726 M219.884 243.600 C 219.308 248.348,219.325 349.041,219.901 347.628 C 220.296 346.659,220.381 335.211,220.301 293.699 C 220.246 264.715,220.058 242.170,219.884 243.600 M358.200 294.800 C 358.200 323.950,358.048 348.250,357.863 348.800 C 357.576 349.652,357.635 349.623,358.263 348.600 C 359.077 347.274,359.312 263.807,358.543 248.600 C 358.320 244.170,358.200 260.271,358.200 294.800 M152.850 347.337 C 152.818 348.329,153.084 349.235,153.600 349.891 C 154.040 350.450,154.400 350.740,154.400 350.534 C 154.400 350.328,154.188 349.948,153.928 349.688 C 153.668 349.428,153.331 348.447,153.178 347.508 L 152.900 345.800 152.850 347.337 M123.929 347.400 C 123.798 347.840,123.558 348.560,123.396 349.000 C 123.144 349.686,123.198 349.670,123.779 348.893 C 124.151 348.393,124.391 347.673,124.312 347.293 C 124.187 346.692,124.136 346.706,123.929 347.400 M58.425 350.036 C 58.375 351.301,63.204 356.129,63.862 355.471 C 63.961 355.372,63.440 354.919,62.703 354.464 C 61.138 353.497,59.310 351.535,58.806 350.281 C 58.571 349.700,58.442 349.616,58.425 350.036 M218.659 350.500 C 218.533 350.995,217.749 352.106,216.915 352.968 C 216.082 353.831,215.700 354.371,216.066 354.168 C 216.981 353.663,219.200 350.814,219.200 350.145 C 219.200 349.309,218.913 349.497,218.659 350.500 M122.630 350.700 C 122.353 351.563,120.655 353.311,118.822 354.617 C 117.029 355.896,117.528 355.897,119.412 354.618 C 120.859 353.636,123.200 350.995,123.200 350.345 C 123.200 349.757,122.865 349.965,122.630 350.700 M357.232 350.717 C 357.214 351.002,356.178 352.217,354.929 353.417 C 353.679 354.618,352.783 355.600,352.937 355.600 C 353.563 355.600,357.657 351.179,357.468 350.708 C 357.305 350.304,357.257 350.306,357.232 350.717 M154.400 351.455 C 154.400 351.668,155.075 352.463,155.900 353.222 L 157.400 354.600 156.000 353.004 C 155.230 352.127,154.555 351.332,154.500 351.238 C 154.445 351.144,154.400 351.241,154.400 351.455 M292.449 352.781 C 292.929 353.430,293.579 354.060,293.893 354.180 C 294.208 354.301,293.871 353.770,293.144 353.000 C 291.531 351.290,291.290 351.214,292.449 352.781 M186.600 356.000 L 161.400 356.209 186.400 356.257 C 200.150 356.284,211.940 356.168,212.600 356.000 C 213.609 355.743,213.641 355.702,212.800 355.743 C 212.250 355.769,200.460 355.885,186.600 356.000 M78.929 356.300 C 85.710 356.361,96.690 356.361,103.329 356.300 C 109.968 356.238,104.420 356.188,91.000 356.188 C 77.580 356.188,72.148 356.238,78.929 356.300 M311.500 356.300 C 318.595 356.361,330.205 356.361,337.300 356.300 C 344.395 356.239,338.590 356.189,324.400 356.189 C 310.210 356.189,304.405 356.239,311.500 356.300 M0.000 369.400 C 0.000 369.730,0.251 370.000,0.557 370.000 C 0.894 370.000,1.281 370.747,1.539 371.900 L 1.965 373.800 1.750 371.849 C 1.632 370.776,1.441 369.651,1.325 369.349 C 1.041 368.608,0.000 368.648,0.000 369.400 M398.814 369.574 C 398.586 369.999,398.412 370.674,398.427 371.074 C 398.450 371.680,398.526 371.651,398.888 370.900 C 399.127 370.405,399.475 370.000,399.661 370.000 C 399.848 370.000,400.000 369.730,400.000 369.400 C 400.000 368.553,399.306 368.655,398.814 369.574 M398.093 373.200 C 398.093 373.970,398.175 374.285,398.276 373.900 C 398.376 373.515,398.376 372.885,398.276 372.500 C 398.175 372.115,398.093 372.430,398.093 373.200 M2.425 376.200 C 2.425 376.420,2.690 376.949,3.013 377.376 C 3.336 377.804,3.600 377.973,3.600 377.753 C 3.600 377.533,3.336 377.004,3.013 376.576 C 2.690 376.149,2.425 375.980,2.425 376.200 M396.811 376.987 C 396.543 377.309,396.393 377.780,396.477 378.032 C 396.561 378.284,396.845 378.020,397.107 377.445 C 397.640 376.274,397.537 376.112,396.811 376.987 M395.291 380.549 C 394.801 381.264,394.400 381.998,394.400 382.181 C 394.400 382.363,394.859 381.835,395.420 381.009 C 395.981 380.182,396.382 379.448,396.311 379.377 C 396.240 379.307,395.781 379.834,395.291 380.549 M4.448 380.600 C 4.804 381.040,5.195 381.670,5.316 382.000 C 5.503 382.509,5.542 382.504,5.568 381.962 C 5.586 381.611,5.195 380.981,4.700 380.562 C 3.808 379.806,3.806 379.807,4.448 380.600 M392.711 384.712 C 392.355 385.311,390.520 387.308,388.632 389.152 C 385.241 392.464,383.810 394.247,386.685 391.578 C 390.646 387.902,393.919 384.186,393.535 383.801 C 393.438 383.704,393.067 384.114,392.711 384.712 M7.200 385.192 C 7.200 386.120,15.761 393.972,16.245 393.488 C 16.368 393.365,16.048 393.044,15.534 392.774 C 15.020 392.504,12.935 390.625,10.900 388.598 C 8.865 386.571,7.200 385.039,7.200 385.192 M383.556 393.700 C 383.086 394.595,383.088 394.596,383.942 393.838 C 384.895 392.991,384.982 392.800,384.414 392.800 C 384.202 392.800,383.816 393.205,383.556 393.700 M17.600 394.691 C 17.930 394.817,18.629 395.253,19.154 395.660 C 19.679 396.067,20.299 396.400,20.532 396.400 C 20.765 396.400,20.345 395.950,19.600 395.400 C 18.855 394.850,17.965 394.414,17.622 394.432 C 17.083 394.459,17.080 394.494,17.600 394.691 M381.029 395.029 C 380.077 395.980,380.276 396.228,381.300 395.366 C 381.795 394.950,382.275 394.562,382.367 394.504 C 382.458 394.447,382.336 394.400,382.095 394.400 C 381.854 394.400,381.374 394.683,381.029 395.029 M22.400 396.939 C 22.950 397.229,23.485 397.396,23.588 397.311 C 23.870 397.080,22.690 396.412,22.000 396.412 C 21.669 396.412,21.849 396.648,22.400 396.939 M373.600 398.000 C 372.233 398.288,372.228 398.295,373.400 398.319 C 374.060 398.333,374.960 398.189,375.400 398.000 C 376.362 397.587,375.564 397.587,373.600 398.000 M28.700 398.812 C 29.195 399.011,29.600 399.360,29.600 399.587 C 29.600 399.814,29.870 400.000,30.200 400.000 C 31.142 400.000,30.901 398.920,29.900 398.652 C 28.533 398.286,27.675 398.400,28.700 398.812 M369.900 398.832 C 369.042 399.332,368.985 400.000,369.800 400.000 C 370.130 400.000,370.400 399.814,370.400 399.587 C 370.400 399.360,370.805 399.011,371.300 398.812 C 372.122 398.482,372.130 398.450,371.400 398.438 C 370.960 398.430,370.285 398.608,369.900 398.832 " stroke="none" fill="#649ec9" fill-rule="evenodd"></path><path id="path2" d="M27.475 0.550 C 27.359 0.852,26.401 1.229,25.346 1.387 C 24.292 1.545,22.792 2.003,22.014 2.404 C 21.236 2.805,20.150 3.338,19.600 3.587 C 18.061 4.286,16.203 5.347,15.571 5.890 C 15.257 6.159,13.889 7.279,12.531 8.378 C 10.356 10.139,7.591 13.181,6.106 15.446 C 5.834 15.861,5.072 17.010,4.413 18.000 C 3.754 18.990,3.211 20.091,3.207 20.446 C 3.203 20.801,2.863 21.521,2.451 22.046 C 2.039 22.571,1.572 23.945,1.413 25.100 C 1.221 26.501,0.938 27.200,0.562 27.200 C 0.186 27.200,0.000 27.664,0.000 28.600 C 0.000 29.543,0.185 30.000,0.568 30.000 C 1.124 30.000,1.306 29.452,1.831 26.200 C 2.124 24.384,3.396 21.306,5.186 18.080 C 7.245 14.370,15.071 6.492,17.684 5.499 C 18.121 5.333,18.934 4.838,19.493 4.399 C 20.051 3.959,20.833 3.600,21.231 3.600 C 21.629 3.600,22.550 3.254,23.277 2.831 C 24.005 2.408,25.500 1.933,26.600 1.776 C 29.074 1.423,30.400 0.947,30.400 0.410 C 30.400 -0.215,27.719 -0.087,27.475 0.550 M370.000 0.386 C 370.000 0.978,371.198 1.469,373.400 1.780 C 374.500 1.935,375.995 2.408,376.723 2.831 C 377.450 3.254,378.360 3.600,378.745 3.600 C 379.130 3.600,380.055 4.050,380.800 4.600 C 381.545 5.150,382.312 5.600,382.504 5.600 C 383.539 5.600,391.161 12.689,393.255 15.600 C 395.459 18.662,398.400 25.231,398.400 27.090 C 398.400 28.555,399.150 30.800,399.639 30.800 C 400.218 30.800,400.054 27.997,399.439 27.382 C 399.130 27.073,398.755 25.925,398.604 24.831 C 398.454 23.736,398.076 22.629,397.765 22.371 C 397.454 22.113,397.200 21.679,397.200 21.407 C 397.200 20.794,394.901 16.417,394.150 15.600 C 393.847 15.270,392.775 13.960,391.768 12.688 C 390.761 11.417,388.826 9.478,387.469 8.378 C 386.111 7.279,384.743 6.159,384.429 5.890 C 383.724 5.284,381.853 4.234,380.000 3.403 C 379.230 3.057,378.134 2.517,377.563 2.202 C 376.993 1.887,375.766 1.508,374.837 1.359 C 373.907 1.211,372.901 0.844,372.602 0.545 C 371.981 -0.076,370.000 -0.197,370.000 0.386 M84.488 44.418 C 82.446 44.585,80.554 44.906,80.282 45.132 C 80.011 45.357,78.892 45.760,77.795 46.027 C 76.698 46.295,75.350 46.752,74.800 47.044 C 74.250 47.336,73.170 47.857,72.400 48.203 C 69.000 49.728,67.970 50.388,63.665 53.800 C 60.907 55.986,55.238 62.116,55.211 62.942 C 55.205 63.130,54.750 63.819,54.200 64.473 C 53.650 65.127,53.200 65.980,53.200 66.369 C 53.200 66.758,52.840 67.402,52.400 67.800 C 51.960 68.198,51.599 68.901,51.599 69.362 C 51.598 69.823,51.250 70.770,50.825 71.466 C 50.400 72.162,49.867 73.738,49.640 74.967 C 49.413 76.197,48.996 77.607,48.713 78.101 C 47.898 79.530,48.012 93.814,48.852 95.400 C 49.202 96.060,49.598 97.447,49.734 98.483 C 49.869 99.518,50.344 101.046,50.790 101.877 C 51.235 102.708,51.604 103.661,51.609 103.994 C 51.614 104.327,51.970 105.050,52.400 105.600 C 52.830 106.150,53.189 106.780,53.198 107.000 C 53.213 107.354,53.942 108.536,56.285 112.000 C 57.615 113.967,64.484 120.564,66.523 121.834 C 67.665 122.545,68.921 123.419,69.312 123.776 C 69.704 124.133,70.550 124.530,71.192 124.658 C 71.834 124.787,72.666 125.231,73.042 125.646 C 73.417 126.061,74.101 126.406,74.562 126.414 C 75.023 126.421,76.120 126.775,77.000 127.200 C 77.880 127.625,78.964 127.979,79.408 127.986 C 79.852 127.994,81.515 128.360,83.103 128.800 C 87.128 129.915,94.472 129.915,98.497 128.800 C 100.085 128.360,101.748 127.994,102.192 127.986 C 102.636 127.979,103.720 127.625,104.600 127.200 C 105.480 126.775,106.532 126.421,106.938 126.414 C 107.344 126.406,108.154 126.071,108.738 125.670 C 109.322 125.268,110.385 124.706,111.100 124.421 C 111.815 124.136,112.400 123.762,112.400 123.591 C 112.400 123.419,112.926 123.095,113.568 122.871 C 114.210 122.647,115.065 122.174,115.468 121.820 C 115.871 121.465,117.082 120.416,118.160 119.488 C 121.797 116.357,125.391 112.466,126.600 110.351 C 126.820 109.966,127.560 108.695,128.244 107.526 C 128.928 106.357,129.624 104.950,129.789 104.400 C 129.955 103.850,130.431 102.839,130.846 102.153 C 131.261 101.467,131.600 100.420,131.600 99.827 C 131.600 99.234,132.005 97.815,132.500 96.674 C 133.329 94.764,133.400 94.000,133.400 87.000 C 133.400 80.126,133.314 79.161,132.500 76.898 C 132.005 75.523,131.600 74.028,131.600 73.578 C 131.600 73.127,131.258 72.093,130.841 71.279 C 130.423 70.466,129.529 68.612,128.853 67.159 C 128.178 65.707,127.349 64.290,127.013 64.010 C 126.676 63.731,126.400 63.343,126.400 63.148 C 126.400 61.779,120.242 55.207,116.435 52.513 C 114.986 51.487,113.710 50.529,113.600 50.383 C 113.303 49.989,108.286 47.600,107.755 47.600 C 107.504 47.600,107.090 47.350,106.836 47.043 C 106.582 46.737,105.610 46.372,104.676 46.232 C 103.743 46.092,102.444 45.700,101.789 45.360 C 99.669 44.259,91.715 43.826,84.488 44.418 M100.205 45.669 C 100.868 46.028,102.308 46.455,103.405 46.618 C 104.502 46.780,105.829 47.247,106.354 47.656 C 106.879 48.065,107.599 48.406,107.954 48.412 C 108.309 48.419,109.320 48.868,110.200 49.410 C 111.080 49.952,112.025 50.397,112.300 50.398 C 112.575 50.399,113.149 50.715,113.575 51.100 C 114.001 51.485,114.766 52.109,115.275 52.486 C 119.154 55.362,122.143 58.278,123.901 60.900 C 124.454 61.725,125.045 62.400,125.214 62.400 C 125.383 62.400,125.710 62.940,125.940 63.600 C 126.170 64.260,126.523 64.800,126.725 64.800 C 126.926 64.800,127.401 65.610,127.779 66.600 C 128.157 67.590,128.611 68.400,128.789 68.400 C 128.966 68.400,129.236 69.075,129.389 69.900 C 129.542 70.725,129.990 71.940,130.384 72.600 C 130.778 73.260,131.218 74.735,131.361 75.877 C 131.504 77.019,131.906 78.636,132.255 79.470 C 133.310 81.995,133.194 91.880,132.072 95.102 C 131.592 96.477,131.199 98.097,131.199 98.702 C 131.198 99.306,130.838 100.389,130.399 101.110 C 129.959 101.830,129.600 102.733,129.600 103.117 C 129.600 103.500,129.150 104.477,128.600 105.286 C 128.050 106.095,127.600 107.009,127.600 107.317 C 127.600 107.624,127.245 108.198,126.810 108.591 C 126.376 108.984,125.908 109.660,125.771 110.092 C 125.401 111.257,116.902 120.400,116.188 120.400 C 116.038 120.400,115.381 120.850,114.727 121.400 C 114.073 121.950,113.289 122.400,112.985 122.400 C 112.680 122.400,112.109 122.735,111.716 123.144 C 111.322 123.553,110.518 124.003,109.928 124.144 C 109.338 124.286,108.608 124.649,108.305 124.952 C 108.002 125.255,107.135 125.632,106.377 125.790 C 105.620 125.949,104.280 126.402,103.400 126.797 C 99.612 128.500,90.226 129.213,84.935 128.200 C 83.211 127.870,81.255 127.600,80.589 127.600 C 79.923 127.600,79.006 127.340,78.552 127.022 C 78.098 126.704,76.843 126.225,75.763 125.958 C 74.684 125.691,73.668 125.252,73.506 124.982 C 73.344 124.712,72.603 124.377,71.861 124.238 C 71.118 124.098,70.187 123.628,69.793 123.192 C 69.399 122.756,68.862 122.400,68.600 122.400 C 68.338 122.400,67.802 122.045,67.409 121.610 C 67.016 121.176,66.324 120.703,65.872 120.559 C 63.571 119.829,54.385 108.867,53.420 105.700 C 53.269 105.205,53.000 104.800,52.821 104.800 C 52.641 104.800,52.284 103.961,52.026 102.937 C 51.768 101.912,51.296 100.702,50.978 100.248 C 50.660 99.794,50.398 98.967,50.395 98.411 C 50.393 97.855,50.114 96.410,49.777 95.200 C 48.887 92.008,48.409 85.832,48.816 82.800 C 49.332 78.966,50.624 73.572,51.355 72.200 C 51.707 71.540,51.996 70.709,51.998 70.354 C 51.999 69.999,52.360 69.250,52.800 68.691 C 53.240 68.131,53.600 67.401,53.600 67.068 C 53.600 66.734,54.050 65.927,54.600 65.273 C 55.150 64.619,55.600 63.894,55.600 63.660 C 55.600 63.427,56.063 62.733,56.628 62.118 C 58.055 60.566,58.498 60.056,60.191 58.020 C 61.005 57.040,62.597 55.548,63.728 54.704 C 64.860 53.860,65.932 52.906,66.112 52.585 C 66.292 52.263,66.673 52.000,66.958 52.000 C 67.243 52.000,67.793 51.650,68.179 51.223 C 68.566 50.795,69.392 50.334,70.014 50.197 C 70.636 50.060,71.350 49.702,71.600 49.400 C 71.850 49.098,72.628 48.727,73.328 48.576 C 74.027 48.424,75.050 47.986,75.600 47.602 C 76.150 47.218,77.590 46.716,78.800 46.486 C 80.010 46.257,81.720 45.783,82.600 45.433 C 84.901 44.518,98.418 44.699,100.205 45.669 M272.396 144.001 C 267.458 144.182,264.328 144.481,262.996 144.902 C 261.898 145.248,260.010 145.649,258.800 145.792 C 257.590 145.935,255.812 146.401,254.849 146.826 C 253.886 147.252,252.536 147.601,251.849 147.603 C 251.162 147.604,250.060 147.963,249.400 148.400 C 248.740 148.837,247.947 149.196,247.637 149.197 C 243.613 149.216,229.993 159.174,223.982 166.493 C 219.720 171.682,219.704 171.666,219.523 162.100 C 219.352 153.073,219.138 152.246,216.273 149.539 C 213.393 146.818,213.605 146.838,186.824 146.818 C 156.978 146.795,157.009 146.790,153.977 153.000 L 153.000 155.000 153.000 251.600 L 153.000 348.200 154.200 350.362 C 154.860 351.552,156.273 353.262,157.341 354.162 L 159.281 355.800 186.372 355.800 L 213.462 355.800 215.031 354.610 C 217.052 353.077,217.885 352.127,218.722 350.400 C 219.345 349.113,219.420 344.663,219.652 295.400 C 219.910 240.335,220.011 237.039,221.565 232.637 C 222.024 231.338,222.400 229.846,222.400 229.321 C 222.400 228.797,222.738 227.700,223.151 226.884 C 223.564 226.068,224.035 224.770,224.197 224.000 C 224.360 223.230,224.636 222.420,224.811 222.200 C 224.987 221.980,225.751 220.630,226.510 219.200 C 229.156 214.214,235.789 206.400,237.375 206.400 C 237.651 206.400,238.187 206.056,238.567 205.636 C 238.948 205.216,239.714 204.758,240.270 204.618 C 240.825 204.479,241.757 204.029,242.340 203.620 C 242.923 203.210,244.114 202.753,244.986 202.603 C 245.859 202.454,247.099 202.059,247.744 201.726 C 250.235 200.437,264.979 200.672,265.808 202.013 C 265.924 202.200,266.869 202.479,267.909 202.633 C 268.949 202.787,270.229 203.247,270.754 203.656 C 271.279 204.065,271.940 204.400,272.223 204.400 C 272.507 204.400,273.273 204.850,273.927 205.400 C 274.581 205.950,275.296 206.400,275.517 206.400 C 276.261 206.400,282.025 212.363,282.592 213.719 C 282.901 214.459,283.434 215.296,283.777 215.581 C 284.120 215.865,284.400 216.336,284.400 216.628 C 284.400 216.919,284.850 218.004,285.400 219.038 C 285.950 220.073,286.400 221.172,286.400 221.482 C 286.400 221.791,286.738 222.799,287.152 223.722 C 287.565 224.645,288.030 226.448,288.184 227.729 C 288.339 229.009,288.765 230.719,289.132 231.529 C 289.743 232.874,289.817 237.912,290.000 290.400 C 290.231 356.807,289.753 350.665,295.000 354.600 L 296.600 355.800 322.200 355.926 C 353.522 356.081,352.037 356.196,354.949 353.398 C 358.439 350.045,358.195 354.113,358.198 299.200 C 358.200 247.246,357.688 221.046,356.584 216.600 C 356.256 215.280,355.818 212.356,355.610 210.103 C 355.402 207.850,355.052 205.671,354.833 205.261 C 354.613 204.851,354.239 203.275,354.000 201.758 C 353.593 199.168,352.788 196.195,351.359 192.000 C 351.022 191.010,350.585 189.570,350.388 188.800 C 350.191 188.030,349.663 186.687,349.215 185.815 C 348.767 184.944,348.400 184.036,348.400 183.797 C 348.400 183.400,346.524 179.625,343.832 174.606 C 343.244 173.509,342.501 172.465,342.181 172.286 C 341.862 172.107,341.600 171.788,341.600 171.577 C 341.600 171.026,339.506 168.210,336.872 165.219 C 332.532 160.290,327.341 155.833,324.700 154.766 C 324.095 154.522,323.600 154.153,323.600 153.947 C 323.600 153.740,322.835 153.220,321.900 152.791 C 320.965 152.361,319.930 151.839,319.600 151.629 C 318.755 151.094,314.797 149.355,313.600 148.994 C 313.050 148.828,312.245 148.446,311.811 148.146 C 311.377 147.846,310.545 147.600,309.962 147.600 C 309.379 147.600,308.114 147.252,307.151 146.826 C 306.188 146.401,304.410 145.935,303.200 145.792 C 301.990 145.649,300.175 145.272,299.167 144.956 C 297.485 144.428,285.206 143.542,281.400 143.675 C 280.520 143.705,276.468 143.852,272.396 144.001 M293.200 144.825 C 294.410 145.022,297.485 145.518,300.034 145.927 C 302.583 146.336,304.896 146.812,305.176 146.985 C 305.455 147.157,306.879 147.618,308.342 148.009 C 311.668 148.898,314.194 149.805,316.000 150.758 C 316.770 151.164,317.895 151.614,318.500 151.756 C 319.105 151.899,319.600 152.170,319.600 152.359 C 319.600 152.548,320.185 152.943,320.900 153.237 C 321.615 153.531,322.984 154.318,323.943 154.986 C 324.902 155.654,326.090 156.470,326.583 156.800 C 327.077 157.130,328.003 157.754,328.640 158.187 C 329.278 158.620,331.566 160.780,333.724 162.987 C 338.725 168.101,338.635 167.998,339.228 169.300 C 339.503 169.905,339.849 170.400,339.997 170.400 C 340.231 170.400,341.188 171.808,343.527 175.594 C 344.647 177.406,346.400 180.875,346.400 181.279 C 346.400 181.498,346.738 182.154,347.150 182.738 C 347.563 183.322,348.033 184.430,348.195 185.200 C 348.357 185.970,348.719 186.870,348.999 187.200 C 349.280 187.530,349.709 188.750,349.953 189.911 C 350.197 191.073,350.646 192.423,350.950 192.911 C 351.255 193.400,351.617 194.688,351.755 195.774 C 351.892 196.860,352.251 198.124,352.553 198.584 C 352.854 199.044,353.224 200.586,353.376 202.010 C 353.527 203.435,353.985 205.770,354.393 207.200 C 354.801 208.630,355.248 211.637,355.385 213.882 C 355.522 216.127,355.899 219.187,356.222 220.682 C 357.525 226.706,358.188 347.311,356.933 350.000 C 356.252 351.461,353.871 353.799,352.101 354.746 C 351.025 355.322,298.165 355.395,296.659 354.822 C 294.708 354.081,292.111 351.010,291.662 348.913 C 291.386 347.628,291.232 330.327,291.207 297.984 C 291.165 244.484,290.754 230.473,289.169 228.563 C 288.951 228.300,288.667 227.121,288.539 225.942 C 288.411 224.764,287.998 223.257,287.622 222.594 C 287.245 221.930,286.818 220.790,286.672 220.061 C 286.526 219.332,286.045 218.275,285.604 217.714 C 285.162 217.152,284.800 216.455,284.800 216.166 C 284.800 214.869,281.165 210.250,277.577 206.989 C 276.488 205.999,273.417 204.015,272.961 204.007 C 272.720 204.003,272.107 203.640,271.600 203.200 C 271.093 202.760,270.334 202.400,269.913 202.400 C 269.492 202.400,268.215 201.995,267.074 201.500 C 264.320 200.305,248.116 200.107,246.376 201.248 C 245.833 201.604,244.791 202.026,244.060 202.187 C 242.691 202.488,238.372 204.614,238.006 205.168 C 237.893 205.340,237.380 205.702,236.866 205.972 C 235.626 206.626,234.245 207.821,232.246 209.970 C 231.341 210.943,230.285 212.068,229.900 212.470 C 229.515 212.871,229.200 213.351,229.200 213.537 C 229.200 213.722,228.831 214.307,228.381 214.837 C 227.116 216.325,225.600 218.780,225.600 219.340 C 225.600 219.618,225.150 220.455,224.600 221.200 C 224.050 221.945,223.600 222.994,223.600 223.530 C 223.600 224.067,223.259 225.067,222.842 225.753 C 222.426 226.439,221.954 227.810,221.795 228.800 C 221.636 229.790,221.269 231.061,220.981 231.625 C 220.693 232.189,220.337 233.809,220.192 235.225 C 220.046 236.641,219.722 238.430,219.473 239.200 C 219.147 240.203,218.959 256.050,218.809 295.071 L 218.600 349.542 217.685 350.671 C 217.182 351.292,216.672 352.070,216.552 352.400 C 216.432 352.730,215.673 353.450,214.867 354.000 L 213.400 355.000 186.272 355.000 C 160.851 355.000,159.119 354.956,158.752 354.300 C 158.537 353.915,158.171 353.600,157.941 353.600 C 157.147 353.600,155.211 351.126,154.795 349.581 C 154.566 348.730,154.203 347.926,153.989 347.793 C 153.455 347.463,153.455 155.847,153.990 154.895 C 154.204 154.513,154.633 153.555,154.942 152.766 C 155.693 150.851,158.766 148.377,160.909 147.962 C 163.439 147.472,210.235 147.535,212.387 148.031 C 214.294 148.471,214.688 148.760,217.335 151.664 C 218.401 152.833,218.798 156.408,218.767 164.550 C 218.750 168.964,218.898 171.858,219.153 172.113 C 219.592 172.552,224.400 167.821,224.400 166.948 C 224.400 166.809,225.165 165.889,226.100 164.902 C 227.900 163.003,229.666 161.340,233.600 157.844 C 233.930 157.551,234.619 157.092,235.130 156.825 C 235.642 156.558,236.407 155.993,236.830 155.570 C 237.254 155.146,237.861 154.800,238.180 154.800 C 238.499 154.800,238.904 154.575,239.080 154.300 C 239.256 154.025,240.030 153.486,240.800 153.102 C 241.570 152.719,242.470 152.248,242.800 152.057 C 244.557 151.037,247.979 149.600,248.651 149.600 C 249.075 149.600,249.777 149.352,250.211 149.048 C 250.645 148.745,252.080 148.276,253.400 148.005 C 254.720 147.735,256.008 147.345,256.262 147.139 C 256.666 146.812,261.692 145.892,268.800 144.842 C 271.815 144.397,290.487 144.384,293.200 144.825 M65.562 147.343 C 62.155 148.190,59.671 150.523,58.362 154.103 C 57.174 157.354,57.187 345.306,58.375 348.857 C 59.246 351.458,60.273 352.778,62.800 354.543 L 64.600 355.800 90.834 355.800 L 117.068 355.800 118.825 354.600 C 121.307 352.905,122.224 351.757,123.385 348.896 L 124.400 346.392 124.400 251.724 L 124.400 157.056 123.541 154.512 C 122.457 151.305,119.244 147.857,116.900 147.387 C 114.300 146.865,67.645 146.825,65.562 147.343 M118.400 148.976 C 120.655 150.450,121.966 152.015,122.539 153.919 C 123.185 156.067,123.172 347.170,122.525 349.339 C 122.273 350.185,121.692 351.141,121.233 351.462 C 120.775 351.783,120.400 352.305,120.400 352.623 C 120.400 352.940,120.165 353.200,119.878 353.200 C 119.590 353.200,118.745 353.650,118.000 354.200 L 116.645 355.200 90.949 355.200 L 65.253 355.200 63.227 353.940 C 62.112 353.247,61.200 352.572,61.200 352.440 C 61.199 352.308,60.760 351.690,60.224 351.066 C 58.723 349.320,58.755 351.792,58.881 249.526 L 59.000 153.252 60.100 152.104 C 60.705 151.473,61.200 150.741,61.200 150.478 C 61.200 150.215,61.413 150.000,61.674 150.000 C 61.935 150.000,62.536 149.635,63.011 149.190 C 64.506 147.785,66.823 147.669,92.000 147.735 L 116.600 147.800 118.400 148.976 M0.000 371.400 C 0.000 372.336,0.186 372.800,0.562 372.800 C 0.938 372.800,1.220 373.498,1.411 374.900 C 1.568 376.055,2.035 377.478,2.448 378.062 C 2.862 378.646,3.200 379.376,3.200 379.684 C 3.200 379.992,3.650 380.855,4.200 381.600 C 4.750 382.345,5.200 383.182,5.200 383.458 C 5.200 383.734,5.427 384.104,5.704 384.280 C 5.981 384.456,6.683 385.320,7.263 386.200 C 9.003 388.839,14.088 393.600,15.167 393.600 C 15.405 393.600,15.600 393.750,15.600 393.933 C 15.600 394.376,19.364 396.800,20.056 396.801 C 20.355 396.802,21.198 397.168,21.929 397.613 C 22.660 398.059,24.070 398.535,25.064 398.671 C 26.058 398.807,26.964 399.162,27.078 399.459 C 27.310 400.064,29.600 400.213,29.600 399.624 C 29.600 399.049,29.047 398.819,26.563 398.359 C 25.307 398.127,23.635 397.591,22.846 397.169 C 22.057 396.746,21.118 396.400,20.760 396.400 C 20.401 396.400,19.650 396.040,19.091 395.600 C 18.531 395.160,17.905 394.800,17.698 394.800 C 17.491 394.800,16.945 394.485,16.484 394.100 C 16.024 393.715,14.641 392.590,13.411 391.600 C 11.015 389.670,7.200 385.527,7.200 384.854 C 7.200 384.629,6.866 384.210,6.457 383.923 C 6.049 383.635,5.574 382.950,5.402 382.400 C 5.231 381.850,4.755 380.971,4.345 380.446 C 3.935 379.921,3.600 379.252,3.600 378.958 C 3.600 378.665,3.258 377.744,2.841 376.912 C 2.423 376.081,1.863 374.185,1.595 372.700 C 1.058 369.713,0.000 368.851,0.000 371.400 M398.881 371.100 C 398.652 371.705,398.358 372.964,398.228 373.899 C 398.017 375.408,396.929 378.318,395.946 380.000 C 395.753 380.330,395.281 381.230,394.898 382.000 C 394.514 382.770,394.109 383.490,393.998 383.600 C 393.886 383.710,393.305 384.459,392.705 385.264 C 390.614 388.070,383.853 394.400,382.947 394.400 C 382.731 394.400,381.945 394.850,381.200 395.400 C 380.455 395.950,379.565 396.406,379.222 396.413 C 378.880 396.419,377.700 396.868,376.600 397.409 C 375.500 397.950,374.117 398.394,373.526 398.396 C 372.138 398.401,370.400 399.065,370.400 399.590 C 370.400 400.205,372.682 400.084,372.923 399.456 C 373.041 399.150,374.049 398.790,375.231 398.634 C 376.386 398.480,377.776 398.005,378.319 397.578 C 378.863 397.150,379.589 396.800,379.932 396.800 C 381.070 396.800,387.793 391.877,390.190 389.289 C 393.204 386.035,393.600 385.539,393.600 385.022 C 393.600 384.727,393.864 384.384,394.187 384.260 C 394.510 384.136,395.047 383.442,395.379 382.717 C 395.712 381.993,396.155 381.130,396.364 380.800 C 397.256 379.389,398.402 376.449,398.818 374.500 C 399.065 373.345,399.431 372.400,399.633 372.400 C 399.835 372.400,400.000 371.860,400.000 371.200 C 400.000 369.699,399.430 369.648,398.881 371.100 " stroke="none" fill="#88b4d4" fill-rule="evenodd"></path><path id="path3" d="M31.600 0.386 C 31.600 1.018,30.144 1.608,27.699 1.966 L 25.400 2.302 27.913 2.351 C 29.315 2.378,31.039 2.144,31.813 1.820 C 33.320 1.191,33.704 0.000,32.400 0.000 C 31.960 0.000,31.600 0.174,31.600 0.386 M366.876 0.700 C 367.061 1.665,369.334 2.360,372.200 2.328 L 374.600 2.300 372.586 2.004 C 369.737 1.586,368.800 1.231,368.800 0.573 C 368.800 0.224,368.397 0.000,367.771 0.000 C 367.006 0.000,366.776 0.180,366.876 0.700 M23.635 2.958 C 23.380 3.265,22.566 3.630,21.826 3.769 C 21.086 3.907,20.030 4.376,19.477 4.811 C 18.925 5.245,18.332 5.600,18.158 5.600 C 16.860 5.600,7.200 14.608,7.200 15.819 C 7.200 16.138,7.011 16.400,6.780 16.400 C 6.548 16.400,6.079 17.075,5.737 17.900 C 5.394 18.725,4.863 19.544,4.557 19.720 C 4.251 19.896,4.000 20.353,4.000 20.735 C 4.000 21.118,3.640 22.137,3.200 23.000 C 2.191 24.978,2.192 25.682,3.201 24.471 C 3.626 23.961,4.090 22.881,4.232 22.071 C 4.373 21.262,4.720 20.414,5.003 20.186 C 5.286 19.959,5.811 19.149,6.169 18.386 C 7.114 16.378,7.685 15.499,8.700 14.493 C 9.195 14.002,9.600 13.420,9.600 13.200 C 9.600 12.980,9.784 12.800,10.010 12.800 C 10.235 12.800,11.561 11.630,12.956 10.200 C 14.351 8.770,15.657 7.600,15.858 7.600 C 16.058 7.600,16.530 7.240,16.907 6.800 C 17.284 6.360,17.947 6.000,18.381 6.000 C 18.814 6.000,19.491 5.664,19.884 5.253 C 20.278 4.842,21.262 4.387,22.071 4.240 C 23.692 3.948,25.906 2.437,24.749 2.413 C 24.391 2.406,23.890 2.651,23.635 2.958 M375.529 3.201 C 376.039 3.626,377.119 4.094,377.929 4.240 C 378.738 4.387,379.722 4.842,380.116 5.253 C 380.509 5.664,381.156 6.000,381.554 6.000 C 381.951 6.000,382.602 6.360,383.000 6.800 C 383.398 7.240,384.001 7.600,384.340 7.600 C 384.697 7.600,384.386 7.180,383.600 6.600 C 382.855 6.050,382.037 5.600,381.784 5.600 C 381.531 5.600,381.010 5.253,380.626 4.829 C 380.243 4.405,379.235 3.941,378.387 3.798 C 377.540 3.655,376.634 3.282,376.374 2.969 C 376.114 2.656,375.609 2.406,375.251 2.413 C 374.741 2.424,374.801 2.594,375.529 3.201 M385.200 7.982 C 385.200 8.455,386.353 9.600,386.829 9.600 C 387.033 9.600,387.200 9.841,387.200 10.136 C 387.200 10.430,387.650 10.877,388.200 11.127 C 388.750 11.378,389.200 11.857,389.200 12.191 C 389.200 12.526,389.474 12.800,389.810 12.800 C 390.145 12.800,390.591 13.250,390.800 13.800 C 391.009 14.350,391.452 14.800,391.783 14.800 C 392.153 14.800,391.688 14.064,390.585 12.900 C 387.782 9.943,385.200 7.585,385.200 7.982 M392.400 15.647 C 392.400 15.978,392.753 16.628,393.184 17.090 C 393.615 17.553,394.081 18.384,394.220 18.937 C 394.359 19.490,394.711 20.034,395.002 20.146 C 395.294 20.258,395.737 21.335,395.988 22.540 C 396.238 23.745,396.703 24.831,397.021 24.953 C 397.747 25.231,397.759 24.810,397.057 23.789 C 396.758 23.355,396.394 22.350,396.249 21.555 C 396.103 20.760,395.628 19.787,395.192 19.393 C 394.756 18.999,394.400 18.469,394.400 18.216 C 394.400 17.963,393.950 17.145,393.400 16.400 C 392.843 15.645,392.400 15.311,392.400 15.647 M2.077 26.480 C 1.901 28.943,1.118 31.600,0.567 31.600 C 0.255 31.600,0.000 31.960,0.000 32.400 C 0.000 33.721,1.194 33.311,1.839 31.769 C 2.222 30.852,2.386 29.452,2.295 27.869 C 2.218 26.511,2.119 25.886,2.077 26.480 M397.785 28.827 C 397.958 32.411,398.558 34.400,399.464 34.400 C 399.769 34.400,400.000 33.969,400.000 33.400 C 400.000 32.850,399.839 32.400,399.643 32.400 C 399.119 32.400,398.744 31.343,398.149 28.200 L 397.619 25.400 397.785 28.827 M87.780 43.166 C 87.571 43.368,86.950 43.593,86.400 43.666 C 85.850 43.740,87.920 43.800,91.000 43.801 C 94.080 43.802,96.060 43.743,95.400 43.670 C 94.740 43.598,94.029 43.372,93.820 43.169 C 93.327 42.691,88.276 42.688,87.780 43.166 M79.134 44.269 C 78.325 44.483,77.821 45.600,78.533 45.600 C 78.812 45.600,79.265 45.375,79.540 45.100 C 79.815 44.825,81.156 44.492,82.520 44.361 L 85.000 44.122 82.400 44.107 C 80.970 44.099,79.500 44.172,79.134 44.269 M99.541 44.372 C 100.939 44.545,102.208 44.889,102.362 45.138 C 102.516 45.387,103.610 45.774,104.793 45.999 C 105.976 46.223,107.241 46.675,107.604 47.003 C 108.464 47.782,109.494 47.837,108.720 47.063 C 107.768 46.111,106.486 45.600,105.046 45.600 C 104.134 45.600,103.505 45.359,103.256 44.915 C 102.957 44.380,102.233 44.212,99.937 44.145 L 97.000 44.059 99.541 44.372 M73.600 46.600 C 72.572 47.358,72.425 47.600,72.991 47.600 C 73.401 47.600,74.059 47.309,74.452 46.953 C 74.845 46.597,75.760 46.165,76.484 45.994 L 77.800 45.682 76.378 45.641 C 75.440 45.614,74.493 45.941,73.600 46.600 M69.833 48.364 C 69.452 48.784,68.704 49.238,68.171 49.372 C 67.637 49.506,67.200 49.862,67.200 50.164 C 67.200 50.466,66.795 50.815,66.300 50.940 C 65.279 51.197,63.940 52.126,62.432 53.625 C 61.864 54.188,61.085 54.767,60.700 54.912 C 60.315 55.057,60.000 55.438,60.000 55.760 C 60.000 56.083,59.640 56.460,59.200 56.600 C 58.760 56.740,58.400 57.091,58.400 57.381 C 58.400 57.671,57.950 58.203,57.400 58.563 C 56.850 58.924,56.400 59.413,56.400 59.651 C 56.400 59.890,55.950 60.619,55.400 61.273 C 54.850 61.927,54.400 62.674,54.400 62.934 C 54.400 63.195,54.040 63.632,53.600 63.907 C 53.160 64.182,52.800 64.833,52.800 65.355 C 52.800 65.876,52.429 66.549,51.975 66.851 C 51.443 67.205,51.069 68.005,50.922 69.100 C 50.785 70.129,50.486 70.800,50.165 70.800 C 49.562 70.800,49.041 73.024,49.311 74.448 C 49.439 75.125,49.507 74.983,49.546 73.954 C 49.575 73.159,49.960 72.050,50.400 71.491 C 50.840 70.931,51.200 70.132,51.200 69.715 C 51.200 69.297,51.650 68.345,52.200 67.600 C 52.750 66.855,53.200 65.991,53.200 65.680 C 53.200 65.165,54.193 63.714,55.785 61.900 C 56.123 61.515,56.400 61.043,56.400 60.850 C 56.400 60.070,61.103 55.267,63.760 53.334 C 65.322 52.198,66.960 50.917,67.400 50.489 C 67.840 50.060,68.650 49.570,69.200 49.399 C 70.798 48.905,72.332 47.600,71.316 47.600 C 70.880 47.600,70.213 47.944,69.833 48.364 M111.000 48.590 C 111.880 49.132,112.754 49.581,112.942 49.588 C 113.130 49.594,113.793 50.005,114.415 50.500 C 115.036 50.995,116.200 51.850,117.002 52.400 C 117.803 52.950,118.820 53.760,119.261 54.200 L 120.063 55.000 119.567 53.900 C 119.295 53.295,118.825 52.800,118.523 52.800 C 118.222 52.800,117.877 52.544,117.757 52.231 C 117.637 51.918,116.832 51.380,115.969 51.034 C 115.106 50.689,114.400 50.237,114.400 50.030 C 114.400 49.823,113.995 49.526,113.500 49.370 C 113.005 49.213,112.365 48.751,112.077 48.343 C 111.788 47.931,111.074 47.601,110.477 47.602 C 109.448 47.604,109.472 47.648,111.000 48.590 M120.849 55.500 C 121.150 55.885,122.068 56.924,122.890 57.808 C 124.194 59.212,127.088 63.243,128.163 65.155 C 128.363 65.510,128.681 66.070,128.871 66.400 C 129.060 66.730,129.475 67.540,129.792 68.200 L 130.369 69.400 130.384 68.362 C 130.393 67.791,130.050 67.007,129.623 66.621 C 129.195 66.234,128.731 65.396,128.591 64.759 C 128.451 64.121,128.095 63.600,127.799 63.600 C 127.504 63.600,127.050 62.957,126.791 62.172 C 126.532 61.387,126.068 60.647,125.760 60.529 C 125.452 60.411,125.200 60.068,125.200 59.766 C 125.200 59.465,124.750 58.924,124.200 58.563 C 123.650 58.203,123.200 57.671,123.200 57.381 C 123.200 57.091,122.849 56.743,122.420 56.606 C 121.992 56.470,121.530 56.008,121.394 55.580 C 121.257 55.151,120.956 54.800,120.724 54.800 C 120.476 54.800,120.527 55.088,120.849 55.500 M130.400 70.053 C 130.400 70.319,130.650 70.821,130.955 71.169 C 131.260 71.516,131.715 72.778,131.966 73.973 C 132.217 75.168,132.643 76.410,132.911 76.733 C 133.851 77.863,133.817 94.763,132.872 96.862 C 132.441 97.818,131.959 99.410,131.801 100.400 C 131.643 101.390,131.235 102.515,130.894 102.900 C 130.554 103.285,130.462 103.600,130.689 103.600 C 131.449 103.600,131.997 102.536,132.253 100.560 C 132.393 99.482,132.798 98.266,133.154 97.858 C 133.713 97.216,133.800 95.724,133.800 86.800 C 133.800 77.876,133.713 76.384,133.154 75.742 C 132.798 75.334,132.392 74.112,132.252 73.028 C 132.024 71.276,130.400 68.667,130.400 70.053 M48.290 76.301 C 47.799 76.843,47.614 77.689,47.647 79.231 L 47.694 81.400 48.017 79.477 C 48.195 78.419,48.551 77.300,48.808 76.990 C 49.557 76.087,49.070 75.439,48.290 76.301 M47.652 93.638 C 47.609 95.810,47.741 96.404,48.400 97.000 C 49.289 97.805,49.616 96.976,48.750 96.110 C 48.503 95.863,48.167 94.612,48.003 93.330 L 47.705 91.000 47.652 93.638 M49.362 99.904 C 49.430 101.091,49.756 102.312,50.108 102.704 C 50.451 103.087,50.858 104.080,51.013 104.911 C 51.172 105.767,51.620 106.596,52.047 106.825 C 52.461 107.047,52.800 107.537,52.800 107.914 C 52.801 108.291,53.251 109.123,53.800 109.762 C 54.350 110.401,54.800 111.172,54.800 111.475 C 54.800 111.777,55.084 112.134,55.431 112.267 C 55.777 112.400,56.223 112.935,56.421 113.455 C 56.618 113.975,56.956 114.400,57.171 114.400 C 57.387 114.400,57.256 113.861,56.881 113.203 C 56.507 112.544,56.069 112.004,55.908 112.003 C 55.748 112.001,55.246 111.325,54.793 110.500 C 54.341 109.675,53.536 108.280,53.006 107.400 C 51.802 105.403,51.200 104.091,51.200 103.463 C 51.200 103.196,50.892 102.538,50.515 102.000 C 50.138 101.462,49.697 100.297,49.535 99.411 C 49.265 97.937,49.250 97.979,49.362 99.904 M129.706 105.450 C 127.911 109.631,120.085 119.600,118.599 119.600 C 118.430 119.600,117.875 120.050,117.365 120.600 C 116.285 121.766,116.919 121.958,118.158 120.840 C 121.007 118.269,125.200 113.818,125.200 113.364 C 125.200 113.069,125.560 112.635,126.000 112.400 C 126.440 112.165,126.800 111.715,126.800 111.400 C 126.800 111.085,127.136 110.648,127.547 110.428 C 127.958 110.208,128.407 109.467,128.544 108.781 C 128.681 108.095,129.172 107.227,129.636 106.852 C 130.168 106.421,130.427 105.826,130.339 105.235 C 130.204 104.329,130.185 104.336,129.706 105.450 M58.032 114.667 C 57.982 115.402,58.450 116.400,58.843 116.400 C 59.040 116.400,59.925 117.146,60.810 118.058 C 61.694 118.969,62.501 119.632,62.603 119.530 C 62.705 119.428,61.821 118.428,60.639 117.308 C 59.457 116.188,58.394 115.030,58.277 114.736 C 58.145 114.405,58.051 114.379,58.032 114.667 M63.600 120.804 C 63.600 121.033,64.050 121.391,64.600 121.600 C 65.150 121.809,65.600 122.143,65.600 122.342 C 65.600 122.540,66.185 122.939,66.900 123.228 C 67.615 123.517,68.333 123.969,68.495 124.232 C 68.657 124.495,69.287 124.835,69.895 124.988 C 70.503 125.140,71.322 125.610,71.716 126.032 C 72.109 126.455,72.919 126.786,73.516 126.768 L 74.600 126.737 73.500 126.335 C 72.895 126.114,72.400 125.797,72.400 125.630 C 72.400 125.463,71.680 125.111,70.800 124.847 C 69.920 124.584,69.200 124.198,69.200 123.989 C 69.200 123.781,68.615 123.342,67.900 123.013 C 67.185 122.685,65.925 121.960,65.100 121.402 C 64.275 120.845,63.600 120.575,63.600 120.804 M115.600 121.995 C 115.600 122.212,115.015 122.665,114.300 123.002 C 112.988 123.620,111.435 124.476,109.600 125.592 C 109.050 125.926,108.240 126.317,107.800 126.460 C 107.136 126.676,107.187 126.727,108.100 126.760 C 108.705 126.782,109.542 126.458,109.961 126.039 C 110.379 125.621,111.144 125.150,111.661 124.992 C 112.177 124.834,112.870 124.469,113.201 124.181 C 113.531 123.892,114.296 123.468,114.901 123.238 C 115.801 122.895,116.513 121.600,115.800 121.600 C 115.690 121.600,115.600 121.778,115.600 121.995 M75.371 127.428 C 76.164 128.221,78.157 128.800,80.097 128.800 C 80.924 128.800,81.600 128.951,81.600 129.136 C 81.600 130.614,97.409 131.084,99.246 129.661 C 99.815 129.220,101.215 128.818,102.711 128.666 C 104.410 128.493,105.502 128.149,106.087 127.605 C 107.187 126.580,106.605 126.578,104.600 127.600 C 103.737 128.040,102.430 128.400,101.696 128.400 C 100.961 128.400,99.784 128.715,99.080 129.100 C 97.193 130.132,84.388 130.131,82.600 129.098 C 81.940 128.717,80.763 128.404,79.985 128.402 C 79.206 128.401,77.863 128.040,77.000 127.600 C 75.115 126.639,74.519 126.576,75.371 127.428 M277.800 143.197 C 274.248 143.417,274.603 143.454,280.967 143.523 C 284.908 143.565,288.058 143.534,287.967 143.454 C 287.585 143.119,281.517 142.966,277.800 143.197 M261.400 144.269 C 260.740 144.635,258.891 145.055,257.291 145.202 C 255.414 145.376,254.208 145.689,253.891 146.087 C 253.614 146.436,252.460 146.807,251.241 146.940 C 249.236 147.159,246.497 148.800,248.135 148.800 C 248.447 148.800,248.919 148.539,249.184 148.220 C 249.449 147.900,250.506 147.515,251.533 147.363 C 252.560 147.210,254.027 146.752,254.794 146.343 C 255.561 145.934,257.001 145.592,257.994 145.582 C 258.987 145.573,260.520 145.287,261.400 144.948 C 262.280 144.609,264.170 144.193,265.600 144.023 L 268.200 143.714 265.400 143.659 C 263.454 143.622,262.234 143.808,261.400 144.269 M296.400 143.984 C 297.830 144.133,299.377 144.459,299.838 144.709 C 300.300 144.958,302.030 145.330,303.683 145.535 C 305.336 145.741,307.119 146.182,307.644 146.516 C 308.170 146.850,309.410 147.250,310.400 147.405 C 311.390 147.560,312.515 147.965,312.900 148.306 C 313.285 148.646,313.600 148.738,313.600 148.511 C 313.600 147.753,312.538 147.203,310.560 146.940 C 309.482 146.796,308.171 146.346,307.646 145.939 C 307.002 145.440,306.025 145.200,304.640 145.200 C 303.352 145.200,302.032 144.902,301.096 144.400 C 299.955 143.789,298.918 143.613,296.701 143.657 L 293.800 143.714 296.400 143.984 M66.145 146.200 C 66.002 146.572,65.393 146.800,64.539 146.800 C 63.605 146.800,62.843 147.121,62.164 147.800 C 61.614 148.350,60.987 148.800,60.772 148.800 C 60.556 148.800,60.209 149.250,60.000 149.800 C 59.791 150.350,59.354 150.800,59.028 150.800 C 58.664 150.800,58.331 151.360,58.163 152.255 C 58.013 153.055,57.555 154.045,57.145 154.455 C 55.977 155.623,55.977 347.177,57.145 348.345 C 57.555 348.755,58.013 349.743,58.162 350.540 C 58.313 351.343,58.772 352.171,59.190 352.395 C 59.606 352.617,60.060 353.159,60.200 353.600 C 60.340 354.040,60.705 354.400,61.013 354.400 C 61.320 354.400,61.759 354.749,61.987 355.176 C 62.269 355.703,63.010 356.034,64.301 356.209 C 65.345 356.351,66.779 356.728,67.487 357.046 C 69.248 357.839,114.061 357.700,114.860 356.900 C 115.135 356.625,115.852 356.400,116.454 356.400 C 118.095 356.400,119.600 355.705,119.600 354.948 C 119.600 354.331,119.542 354.328,118.894 354.915 C 118.506 355.266,117.381 355.740,116.394 355.967 C 114.036 356.510,68.480 356.546,65.637 356.007 C 62.675 355.445,59.060 352.571,58.586 350.400 C 58.466 349.850,58.105 348.890,57.784 348.268 C 56.898 346.550,56.926 155.796,57.813 154.624 C 58.136 154.196,58.400 153.463,58.400 152.993 C 58.400 152.494,59.315 151.217,60.607 149.915 C 64.184 146.310,63.992 146.331,91.800 146.497 C 118.504 146.656,117.614 146.554,120.963 149.850 C 122.236 151.102,123.200 151.793,123.200 151.453 C 123.200 151.123,122.840 150.740,122.400 150.600 C 121.960 150.460,121.600 150.083,121.600 149.760 C 121.600 149.438,121.285 149.059,120.900 148.917 C 120.515 148.776,119.804 148.241,119.319 147.730 C 118.730 147.108,117.983 146.800,117.062 146.800 C 116.208 146.800,115.598 146.572,115.455 146.200 C 115.106 145.291,66.494 145.291,66.145 146.200 M161.200 146.200 C 160.926 146.530,160.286 146.800,159.777 146.800 C 157.507 146.800,154.564 149.081,154.147 151.163 C 154.011 151.843,153.672 152.400,153.393 152.400 C 152.419 152.400,152.400 154.308,152.400 251.810 C 152.400 346.972,152.423 349.971,153.143 350.477 C 153.551 350.765,154.015 351.411,154.174 351.913 C 154.455 352.803,155.365 353.833,157.208 355.346 C 157.707 355.756,158.855 356.187,159.758 356.304 C 160.661 356.421,161.755 356.761,162.189 357.058 C 163.431 357.911,210.491 357.855,211.200 357.000 C 211.474 356.670,212.315 356.400,213.068 356.400 C 214.016 356.400,214.724 356.092,215.365 355.400 C 215.875 354.850,216.484 354.400,216.719 354.400 C 216.954 354.400,217.260 354.040,217.400 353.600 C 217.540 353.159,218.002 352.613,218.427 352.386 C 218.852 352.158,219.200 351.683,219.200 351.331 C 219.200 350.941,218.718 351.298,217.966 352.245 C 217.288 353.100,216.433 353.967,216.066 354.171 C 215.700 354.375,215.220 354.773,215.000 355.055 C 214.020 356.312,166.349 357.167,160.482 356.033 C 158.725 355.693,155.467 353.320,154.649 351.783 C 154.420 351.352,153.910 350.512,153.516 349.916 C 152.327 348.116,152.410 154.077,153.600 153.000 C 154.040 152.602,154.400 151.965,154.400 151.585 C 154.400 150.009,157.883 147.580,161.200 146.843 C 163.993 146.223,210.494 146.416,213.049 147.059 C 214.935 147.534,218.683 151.120,219.049 152.800 C 219.169 153.350,219.522 154.597,219.833 155.571 C 220.213 156.758,220.400 159.226,220.400 163.048 C 220.400 168.652,220.769 170.271,221.676 168.650 C 221.880 168.286,222.418 167.642,222.872 167.219 L 223.698 166.449 222.862 166.668 C 222.403 166.788,221.918 167.227,221.786 167.643 C 221.119 169.744,220.800 167.851,220.800 161.799 C 220.800 155.961,220.707 155.024,220.000 153.704 C 219.560 152.884,219.200 151.906,219.200 151.533 C 219.200 151.159,218.840 150.740,218.400 150.600 C 217.960 150.460,217.600 150.083,217.600 149.760 C 217.600 149.438,217.285 149.059,216.900 148.917 C 216.515 148.776,215.804 148.241,215.319 147.730 C 214.769 147.149,213.976 146.800,213.207 146.800 C 212.481 146.800,211.880 146.554,211.745 146.200 C 211.543 145.676,208.378 145.600,186.606 145.600 C 164.954 145.600,161.633 145.678,161.200 146.200 M244.058 149.542 C 243.650 149.950,242.795 150.414,242.158 150.572 C 241.521 150.730,240.640 151.185,240.200 151.584 C 239.760 151.982,238.995 152.431,238.500 152.581 C 238.005 152.731,237.600 153.112,237.600 153.427 C 237.600 153.742,237.265 154.000,236.855 154.000 C 236.445 154.000,235.431 154.540,234.600 155.200 C 233.769 155.860,232.935 156.400,232.745 156.400 C 232.555 156.400,232.400 156.627,232.400 156.905 C 232.400 157.183,231.996 157.588,231.502 157.805 C 231.009 158.022,230.542 158.560,230.466 159.000 C 230.339 159.736,230.371 159.745,230.864 159.122 C 231.740 158.015,236.459 154.400,237.028 154.400 C 237.318 154.400,237.790 154.085,238.077 153.700 C 238.365 153.315,239.230 152.686,240.000 152.302 C 240.770 151.919,241.670 151.450,242.000 151.262 C 242.906 150.743,246.119 149.263,246.800 149.050 C 247.130 148.947,246.815 148.849,246.100 148.832 C 245.332 148.813,244.496 149.104,244.058 149.542 M315.272 149.192 C 315.862 149.370,316.757 149.805,317.261 150.158 C 317.766 150.511,318.498 150.800,318.889 150.800 C 319.280 150.800,319.942 151.142,320.361 151.561 C 320.779 151.979,321.544 152.451,322.061 152.610 C 322.577 152.769,323.322 153.237,323.716 153.650 C 324.109 154.062,324.621 154.400,324.853 154.400 C 325.196 154.400,327.974 156.349,330.700 158.503 C 331.039 158.771,331.200 158.750,331.200 158.436 C 331.200 158.183,330.885 157.857,330.500 157.714 C 330.115 157.570,329.565 157.126,329.277 156.726 C 328.990 156.327,328.501 156.000,328.191 156.000 C 327.882 156.000,327.443 155.655,327.217 155.233 C 326.991 154.810,326.264 154.346,325.600 154.200 C 324.936 154.054,324.209 153.590,323.983 153.167 C 323.757 152.745,323.246 152.400,322.848 152.400 C 322.450 152.400,321.807 152.050,321.421 151.623 C 321.034 151.195,320.166 150.724,319.492 150.576 C 318.818 150.428,317.903 149.968,317.458 149.554 C 317.004 149.131,316.112 148.815,315.425 148.834 L 314.200 148.869 315.272 149.192 M123.200 152.911 C 123.200 153.192,123.515 153.867,123.900 154.411 C 124.562 155.346,124.600 160.615,124.600 251.400 L 124.600 347.400 123.525 349.600 C 122.934 350.810,121.909 352.385,121.248 353.100 C 120.586 353.815,120.276 354.400,120.558 354.400 C 120.841 354.400,121.277 353.950,121.527 353.400 C 121.778 352.850,122.257 352.400,122.591 352.400 C 122.926 352.400,123.200 352.075,123.200 351.678 C 123.200 351.280,123.650 350.345,124.200 349.600 L 125.200 348.245 125.199 251.622 C 125.197 156.005,125.189 154.986,124.404 153.700 C 123.561 152.317,123.200 152.081,123.200 152.911 M332.568 160.421 C 334.959 162.524,336.400 164.024,336.400 164.411 C 336.400 164.603,336.649 164.904,336.953 165.080 C 337.742 165.536,341.600 170.234,341.600 170.738 C 341.600 170.969,342.050 171.644,342.600 172.238 C 343.374 173.073,343.600 173.165,343.600 172.646 C 343.600 172.277,343.346 171.878,343.037 171.759 C 342.727 171.640,342.241 170.970,341.957 170.271 C 341.673 169.572,341.116 168.765,340.720 168.477 C 340.324 168.190,340.000 167.707,340.000 167.404 C 340.000 167.102,339.659 166.746,339.243 166.614 C 338.827 166.482,338.394 166.019,338.281 165.587 C 338.167 165.154,337.808 164.800,337.481 164.800 C 337.154 164.800,336.774 164.350,336.636 163.800 C 336.498 163.250,336.118 162.800,335.792 162.800 C 335.467 162.800,335.200 162.526,335.200 162.191 C 335.200 161.857,334.750 161.378,334.200 161.127 C 333.650 160.877,333.200 160.430,333.200 160.136 C 333.200 159.841,333.035 159.600,332.833 159.600 C 332.631 159.600,332.136 159.474,331.733 159.321 C 331.330 159.168,331.706 159.663,332.568 160.421 M228.200 160.806 C 227.540 161.469,226.559 162.453,226.019 162.992 C 225.480 163.531,225.120 164.048,225.219 164.140 C 225.319 164.233,226.476 163.249,227.792 161.954 C 229.107 160.659,230.007 159.600,229.792 159.600 C 229.576 159.601,228.860 160.143,228.200 160.806 M343.600 173.889 C 343.600 174.102,343.960 174.602,344.400 175.000 C 344.840 175.398,345.200 176.049,345.200 176.446 C 345.200 176.844,345.535 177.491,345.945 177.884 C 346.355 178.278,346.791 178.870,346.914 179.200 C 347.063 179.601,347.147 179.506,347.168 178.914 C 347.186 178.414,346.852 177.842,346.400 177.600 C 345.960 177.365,345.597 176.773,345.594 176.286 C 345.587 175.301,345.332 174.860,344.300 174.051 C 343.915 173.749,343.600 173.676,343.600 173.889 M347.200 180.681 C 347.200 180.913,347.471 181.327,347.802 181.601 C 348.132 181.876,348.566 182.663,348.766 183.350 L 349.128 184.600 349.164 183.370 C 349.188 182.543,348.872 181.832,348.200 181.200 C 347.650 180.683,347.200 180.450,347.200 180.681 M349.200 185.014 C 349.200 185.132,349.450 185.627,349.755 186.114 C 350.060 186.601,350.431 187.688,350.579 188.529 C 350.726 189.370,351.196 190.630,351.622 191.329 C 352.048 192.028,352.398 193.235,352.399 194.011 C 352.399 194.787,352.669 195.806,352.998 196.276 C 353.327 196.746,353.756 198.091,353.952 199.265 L 354.306 201.400 354.353 199.100 C 354.389 197.354,354.222 196.622,353.662 196.062 C 353.208 195.608,352.820 194.431,352.651 192.998 C 352.491 191.634,352.123 190.486,351.762 190.222 C 351.424 189.974,351.044 188.968,350.919 187.986 C 350.635 185.759,349.200 183.278,349.200 185.014 M248.296 202.000 C 247.475 202.440,246.321 202.800,245.733 202.800 C 244.622 202.800,239.796 204.965,238.871 205.878 C 238.581 206.165,238.146 206.400,237.905 206.400 C 237.439 206.400,236.302 207.415,233.275 210.532 C 232.244 211.594,230.995 212.841,230.500 213.304 C 230.005 213.766,229.600 214.299,229.600 214.488 C 229.600 214.678,229.240 215.365,228.800 216.016 C 228.360 216.667,227.640 217.733,227.200 218.384 C 226.760 219.035,226.400 219.693,226.400 219.846 C 226.400 219.999,226.760 219.798,227.200 219.400 C 227.640 219.002,228.000 218.460,228.000 218.196 C 228.000 217.933,228.450 217.231,229.000 216.638 C 229.550 216.044,230.000 215.220,230.000 214.806 C 230.000 214.393,230.360 213.940,230.800 213.800 C 231.240 213.660,231.600 213.370,231.600 213.156 C 231.600 212.659,235.875 208.400,236.373 208.400 C 236.578 208.400,236.860 208.040,237.000 207.600 C 237.145 207.145,237.605 206.800,238.069 206.800 C 238.518 206.800,239.419 206.350,240.073 205.800 C 240.727 205.250,241.548 204.800,241.899 204.800 C 242.250 204.800,242.869 204.499,243.275 204.132 C 243.681 203.765,245.016 203.328,246.242 203.162 C 247.468 202.995,248.779 202.581,249.156 202.240 C 249.702 201.745,251.165 201.596,256.420 201.500 L 263.000 201.379 256.394 201.289 C 250.450 201.209,249.639 201.280,248.296 202.000 M263.944 202.413 C 264.592 202.953,265.486 203.200,266.790 203.200 C 268.066 203.200,269.016 203.455,269.678 203.975 C 270.220 204.402,271.189 204.881,271.832 205.040 C 272.474 205.199,273.235 205.660,273.523 206.065 C 273.810 206.469,274.241 206.800,274.481 206.800 C 274.956 206.800,275.626 207.381,278.498 210.282 C 279.543 211.337,280.500 212.515,280.625 212.900 C 280.751 213.285,281.094 213.600,281.388 213.600 C 281.681 213.600,282.110 214.140,282.340 214.800 C 282.570 215.460,282.928 216.000,283.135 216.000 C 283.342 216.000,283.626 216.612,283.766 217.359 C 283.906 218.107,284.376 219.170,284.811 219.723 C 285.264 220.299,285.600 221.338,285.600 222.163 C 285.600 223.044,285.896 223.896,286.364 224.364 C 286.784 224.784,287.213 225.459,287.317 225.864 C 287.451 226.383,287.521 226.290,287.554 225.549 C 287.579 224.971,287.340 224.282,287.022 224.018 C 286.704 223.754,286.244 222.576,286.000 221.400 C 285.756 220.224,285.314 219.060,285.017 218.814 C 284.721 218.568,284.368 217.927,284.233 217.388 C 284.098 216.850,283.444 215.642,282.780 214.705 C 282.117 213.767,281.272 212.550,280.903 212.000 C 279.936 210.558,276.840 207.639,275.134 206.559 C 274.327 206.050,273.551 205.445,273.410 205.216 C 273.269 204.987,272.828 204.800,272.430 204.800 C 272.033 204.800,271.239 204.432,270.667 203.981 C 270.094 203.531,268.598 202.995,267.342 202.791 C 266.087 202.586,264.875 202.235,264.649 202.009 C 264.424 201.784,263.961 201.606,263.620 201.613 C 263.165 201.623,263.251 201.836,263.944 202.413 M354.400 202.734 C 354.400 203.012,354.662 203.746,354.981 204.364 C 355.301 204.982,355.687 207.179,355.839 209.244 C 355.991 211.310,356.373 213.810,356.689 214.800 C 357.075 216.012,357.383 219.998,357.630 227.000 C 357.833 232.720,358.206 241.450,358.460 246.400 C 359.293 262.643,359.163 347.119,358.302 348.600 C 357.919 349.260,357.604 350.124,357.602 350.520 C 357.601 350.916,356.969 351.890,356.197 352.684 C 355.426 353.478,354.893 354.227,355.014 354.347 C 355.356 354.690,358.000 351.534,358.000 350.781 C 358.000 350.411,358.378 349.627,358.840 349.040 L 359.680 347.972 359.462 294.086 C 359.322 259.623,359.094 239.335,358.828 237.800 C 358.599 236.480,358.260 230.678,358.073 224.906 C 357.785 215.985,357.634 214.301,357.067 213.674 C 356.603 213.161,356.399 212.216,356.398 210.569 C 356.394 207.256,355.730 203.559,355.008 202.837 C 354.572 202.401,354.400 202.372,354.400 202.734 M226.054 220.839 C 226.025 221.190,225.640 221.893,225.200 222.400 C 224.760 222.907,224.400 223.793,224.400 224.367 C 224.400 224.942,224.046 226.073,223.613 226.881 C 223.180 227.688,222.647 229.459,222.429 230.815 C 222.210 232.171,221.819 233.536,221.559 233.850 C 220.971 234.558,221.440 235.120,222.083 234.477 C 222.341 234.219,222.690 232.712,222.860 231.129 C 223.056 229.295,223.377 228.133,223.746 227.926 C 224.068 227.746,224.447 226.672,224.600 225.501 C 224.782 224.116,225.148 223.185,225.675 222.770 C 226.210 222.349,226.414 221.820,226.292 221.170 C 226.191 220.637,226.084 220.487,226.054 220.839 M287.653 229.400 C 287.623 230.653,287.866 231.848,288.302 232.600 C 288.955 233.722,289.013 237.576,289.200 291.732 C 289.388 346.311,289.441 349.694,290.100 350.176 C 290.485 350.458,290.800 350.884,290.800 351.123 C 290.800 351.363,291.250 352.044,291.800 352.638 C 292.350 353.231,292.800 353.871,292.800 354.058 C 292.800 354.246,293.004 354.400,293.254 354.400 C 293.504 354.400,294.125 354.850,294.635 355.400 C 295.320 356.139,295.971 356.400,297.132 356.400 C 298.056 356.400,298.912 356.653,299.212 357.014 C 299.900 357.843,348.828 357.733,349.660 356.900 C 349.935 356.625,350.766 356.400,351.506 356.400 C 353.208 356.400,354.404 355.771,354.387 354.886 C 354.375 354.245,354.340 354.246,353.843 354.900 C 352.833 356.231,349.517 356.400,324.400 356.400 C 299.322 356.400,296.159 356.240,294.709 354.897 C 292.376 352.739,291.787 351.981,290.746 349.800 L 289.601 347.400 289.600 291.187 C 289.600 241.291,289.529 234.729,288.972 232.787 C 288.626 231.584,288.199 229.880,288.022 229.000 L 287.700 227.400 287.653 229.400 M220.662 239.100 C 220.520 241.245,220.403 266.271,220.402 294.713 C 220.400 339.772,220.323 346.610,219.800 347.862 C 219.470 348.651,219.214 349.591,219.232 349.949 C 219.258 350.493,219.299 350.502,219.484 350.000 C 219.605 349.670,219.938 349.130,220.223 348.800 C 220.633 348.326,221.367 235.199,220.960 235.200 C 220.939 235.200,220.804 236.955,220.662 239.100 M0.000 367.600 C 0.000 368.393,0.201 368.800,0.592 368.800 C 1.212 368.800,1.404 369.318,2.002 372.605 C 2.342 374.471,2.357 374.407,2.236 371.600 C 2.058 367.491,0.000 363.808,0.000 367.600 M398.576 367.647 C 398.213 368.349,397.861 370.225,397.771 371.947 L 397.611 375.000 398.134 372.247 C 398.442 370.623,398.932 369.293,399.328 369.003 C 400.042 368.481,400.268 366.400,399.610 366.400 C 399.396 366.400,398.930 366.961,398.576 367.647 M2.413 375.015 C 2.406 375.244,2.760 376.137,3.200 377.000 C 3.640 377.863,4.000 378.863,4.000 379.223 C 4.000 379.582,4.360 380.202,4.800 380.600 C 5.240 380.998,5.600 381.628,5.600 381.999 C 5.600 382.859,6.534 383.997,11.100 388.701 C 13.306 390.973,14.800 392.243,14.800 391.844 C 14.800 391.476,14.488 391.055,14.107 390.909 C 13.726 390.763,12.474 389.643,11.325 388.422 C 10.176 387.200,8.867 385.834,8.418 385.386 C 7.968 384.938,7.600 384.393,7.600 384.175 C 7.600 383.956,7.240 383.470,6.800 383.093 C 6.360 382.716,6.000 382.056,6.000 381.627 C 6.000 381.197,5.663 380.610,5.252 380.321 C 4.834 380.029,4.377 379.047,4.217 378.100 C 3.960 376.578,2.446 373.990,2.413 375.015 M396.682 375.775 C 396.304 376.153,396.000 377.070,396.000 377.832 C 396.000 378.713,395.712 379.454,395.200 379.893 C 394.760 380.270,394.400 380.794,394.400 381.058 C 394.400 381.322,393.950 382.073,393.400 382.727 C 392.850 383.381,392.400 384.160,392.400 384.458 C 392.401 384.756,392.851 384.477,393.400 383.838 C 393.950 383.199,394.400 382.469,394.400 382.215 C 394.400 381.962,394.850 381.145,395.400 380.400 C 395.950 379.655,396.400 378.689,396.400 378.254 C 396.400 377.819,396.688 377.144,397.041 376.755 C 397.924 375.779,397.590 374.867,396.682 375.775 M391.300 385.465 C 391.025 385.576,390.800 385.840,390.800 386.051 C 390.800 386.543,386.522 390.800,386.027 390.800 C 385.822 390.800,385.540 391.160,385.400 391.600 C 385.256 392.053,384.795 392.400,384.336 392.400 C 383.875 392.400,383.439 392.729,383.326 393.162 C 383.202 393.634,382.641 394.016,381.851 394.164 C 381.149 394.296,380.267 394.763,379.891 395.202 C 379.500 395.659,378.712 396.000,378.048 396.000 C 376.801 396.000,374.441 397.562,375.651 397.587 C 376.009 397.594,376.507 397.352,376.759 397.050 C 377.010 396.747,377.887 396.392,378.709 396.261 C 379.531 396.130,380.516 395.657,380.898 395.211 C 381.280 394.765,381.948 394.400,382.382 394.400 C 382.816 394.400,383.365 394.040,383.600 393.600 C 383.835 393.160,384.247 392.796,384.514 392.791 C 384.781 392.786,386.710 391.077,388.800 388.993 C 392.275 385.528,392.728 384.889,391.300 385.465 M16.165 393.400 C 16.675 393.950,17.351 394.400,17.668 394.400 C 17.985 394.400,18.855 394.850,19.600 395.400 C 20.345 395.950,21.358 396.400,21.849 396.400 C 22.341 396.400,23.013 396.670,23.343 397.000 C 24.022 397.679,24.800 397.793,24.800 397.214 C 24.800 396.618,23.386 396.000,22.022 396.000 C 21.288 396.000,20.517 395.678,20.109 395.202 C 19.733 394.763,18.851 394.296,18.149 394.164 C 17.359 394.016,16.798 393.634,16.674 393.162 C 16.565 392.743,16.197 392.400,15.857 392.400 C 15.381 392.400,15.452 392.631,16.165 393.400 M25.800 397.833 C 26.240 397.948,27.545 398.225,28.700 398.449 C 30.063 398.714,30.800 399.057,30.800 399.428 C 30.800 399.771,31.200 400.000,31.800 400.000 C 32.369 400.000,32.800 399.769,32.800 399.464 C 32.800 398.609,30.851 397.951,27.814 397.782 C 26.266 397.696,25.360 397.719,25.800 397.833 M369.765 397.977 C 368.136 398.366,367.600 398.725,367.600 399.424 C 367.600 400.207,368.800 400.154,369.392 399.343 C 369.659 398.979,371.012 398.463,372.436 398.183 L 375.000 397.678 373.000 397.680 C 371.900 397.681,370.444 397.815,369.765 397.977 " stroke="none" fill="#3c8cc4" fill-rule="evenodd"></path></g></svg>